<svg height="275.638463" viewBox="0 0 387.56612 294.37768" width="362.79407" xmlns="http://www.w3.org/2000/svg"><path d="m387.23012 290.65776-.173.107c.181-.107.328-.254.509-.361l-.345.254z" fill="#fff"/><path d="m205.92913 260.35075c-.221.566-.418 1.165-.656 1.722.22197-.57399.45998-1.14799.656-1.722z" fill="#fff"/><path d="m158.09412 291.63374c17.679-1.303 33.767-8.077 43.214-22.115h-.025c.451-.64.836-1.287 1.23-1.935.221-.377.476-.722.689-1.107.27-.468.484-.951.73-1.427.287-.549.565-1.123.836-1.697.172-.394.312-.779.467-1.173-8.388 19.008-26.756 27.864-47.141 29.463z" fill="#fff"/><path d="m359.64711 274.38976c-.746-.156-1.492-.443-2.23-.632 0 .345-.017.664-.009 1.001.771-.123 1.575-.246 2.247-.369z" fill="#fff"/><path d="m57.46011 267.90276c-.14.05-.246.074-.386.123a86.94715 86.94715 0 0 1 9.069-.967 24.40948 24.40948 0 0 1 13.235 3.624c.656-.385 1.329-.795 1.821-1.115l2.009 1.681c-.484.32-1.075.656-1.632.984.557.443 1.115.886 1.656 1.402 0 0-.123.09-.164.123.386-.262 1.591-1.115 3.272-2.46-6.494-4.625-15.728-8.019-28.88-3.386z" fill="#fff"/><path d="m177.13211 199.03975c3.182 2.091 6.749 4.575 6.888 9.225.139 4.772-4.002 10.356-5.355 12.16-1.738 2.321-7.232 8.832-14.374 4.297 0 0-10.349-6.421-17.647-10.783l-5.207 7.708c9.619 1.648 35.769 6.142 57.884 9.93-1.254-9.225-4.272-17.663-6.117-25.01a112.21384 112.21384 0 0 1 8.397 25.404q2.472.43049 4.846.836c-.508-2.509-1.041-4.78-1.468-6.716-.869-3.985-4.42-12.496-7.56-22.853a58.97953 58.97953 0 0 1 -13.776-11.152c-.066-.057-7.733-7.355-14.391-14.014-3.395 5.486-5.584 9.037-6.946 11.242l14.834 9.726z" fill="#ff3c00"/><path d="m217.5071 130.59476c8.528-4.601 15.727-7.093 27.265-8.815-.058.008 3.362-.468 3.362-.468 2.296-.344 6.683-1.246 7.937-3.534a9.98106 9.98106 0 0 0 .837-5.1c-14.383 3.009-29.397 6.609-42.403 11.89a55.44046 55.44046 0 0 0 -11.439 6.109c1.058 2.238 2.313 4.92 3.74 7.954a52.36447 52.36447 0 0 1 8.077-6.323c.467-.385 2.632-1.713 2.632-1.713z" fill="#ff3c00"/><path d="m175.94211 167.12575c4.764 5.182 11.734 12.767 17.277 18.269-1.197-7.773-1.476-15.76.131-23.148a44.839 44.839 0 0 1 4.691-12.366l-4.748-10.348c-1.099 1.656-2.673 4.059-4.182 6.437 0-.009-6.412 10.217-13.178 21.156z" fill="#ff3c00"/><path d="m194.96611 121.22176a51.05087 51.05087 0 0 1 12.899-7.093c10.078-4.223 28.019-9.053 46.354-12.726-1.271-3.666-5.362-15.441-5.362-15.441-.205-.508-3.026-6.281-.804-9.75a5.76084 5.76084 0 0 1 5.084-2.32c.008 0-.107.065 6.33.303l.287-.115a1.27838 1.27838 0 0 0 .123-.073l7.028-3.371c1.656-.492 3.657-.984 3.657-.984a8.698 8.698 0 0 1 8.38 4.912l.771.058c-2.993-5.896-4.707-7.774-6.699-11.103-87.593-124.7878-308.44321-47.642-264.87661 126.706 9.7416 35.408 21.1232 54.194 33.4888 71.808 0 0 .2788 8.536 14.1938 4.075 13.293-4.264 22.632-3.977 35.457 6.043 17.056 13.309 43.321 21.222 66.814 19.492 20.393-1.591 38.753-10.455 47.142-29.463a1.01908 1.01908 0 0 1 .041-.106c.237-.55.434-1.148.656-1.722a42.74746 42.74746 0 0 0 2.066-15.187q-2.5095-.41849-5.215-.885c-1.279 21.967-23.1 43.058-62.066 40.622-16.302-.606-33.702-8.536-44.083-14.186-4.764-3.198-18.237-10.733-24.69-12.168 5.625.303 19.647 7.658 25.543 11.037 12.07 6.224 28.913 12.177 43.246 12.775 26.035 2.444 55.58-10.865 58.86-38.622-26.051-4.411-61.402-10.397-66.01-11.184a5.66234 5.66234 0 0 1 -3.69 1 7.61637 7.61637 0 0 1 -6.216-3.944 4.59019 4.59019 0 0 1 .476-4.805c-.016.024 12.398-18.491 12.398-18.491l.533-1.05a7.36937 7.36937 0 0 1 1.345-5.838c1.009-1.017 6.65-10.283 7.962-12.883a6.06076 6.06076 0 0 1 4.568-2.796c1.287-2.042 4.461-7.109 9.881-15.9a6.57184 6.57184 0 0 1 2.452-6.207 7.402 7.402 0 0 1 1.64-.902c6.633-10.734 14.071-22.501 16.145-25.576 2.378-3.263 4.215-5.42 6.347-7.864a31.44306 31.44306 0 0 1 3.411-2.976 7.78249 7.78249 0 0 1 3.854-2.69.68676.68676 0 0 1 .287-.418zm-29.364 118.179a7.75649 7.75649 0 0 1 3.009 14.899 4.94122 4.94122 0 0 1 -8.159-1.345 7.7345 7.7345 0 0 1 5.142-13.554zm-61.106 24.518a5.8329 5.8329 0 0 1 -4.33 1.131c-1.747 1.001-4.346.459-6.248-1.541-1.804-1.903-2.255-4.379-1.362-6.077-.369-2.747.386-5.477 2.329-6.838 2.936-2.075 7.397-.804 9.955 2.829 2.55799 3.632 2.427 8.175-.344 10.49599zm38.253-20.869c-13.022 13.776-38.827 13.677-53.489-5.109 24.813 23.00899 47.954 7.80599 53.48901 5.109zm-23.477-16.204a15.56906 15.56906 0 0 1 -5.035.779 18.61926 18.61926 0 0 1 -13.169-5.912c-6.97-7.306-7.421-18.565-1.009-25.108a15.20346 15.20346 0 0 1 11.062-4.51 18.58763 18.58763 0 0 1 13.169 5.912 19.81074 19.81074 0 0 1 5.535 13.251l-10.553 15.58z" fill="#ff3c00"/><path d="m204.7661 263.34377c-.271.574-.549 1.148-.836 1.698.28702-.56602.59-1.13202.836-1.698z" fill="#311d00"/><path d="m158.09111 291.63374c-23.493 1.73-49.758-6.174-66.814-19.491-12.833-10.021-22.165-10.299-35.457-6.044-13.9152 4.461-14.194-4.075-14.194-4.075-12.3656-17.614-23.7472-36.392-33.4888-71.807-43.5666-174.341 177.2838-251.4862 264.8848-126.707 1.992 3.329 3.706 5.207 6.699 11.103l3.108.246c-82.008-146.1158-334.20738-65.059-273.49461 128.469a214.63154 214.63154 0 0 0 14.5714 35.047c.1312-.549.2542-1.017.3198-1.304 0 0 .5248 1.509 1.54981 3.854a2.13641 2.13641 0 0 1 .041-.221 190.00425 190.00425 0 0 0 13.2102 20.992c.8282.861 1.681 1.706 2.583 2.493a5.55844 5.55844 0 0 0 1.517 3.928 7.62378 7.62378 0 0 0 2.3284 1.016.12361.12361 0 0 1 .05.017c.287.065.623.041.926.082a26.7217 26.7217 0 0 0 5.543-.41s2.264-.402 5.117-.82c.14-.041.246-.074.386-.123 13.152-4.633 22.386-1.238 28.88 3.386.836.599 1.64 1.206 2.386 1.829 35.621 27.765 93.874 29.963 115.374-2.919-.959-.197-1.91-.41-2.804-.689-9.438 14.038-25.535 20.82-43.214 22.115z" fill="#311d00"/><path d="m203.20012 266.46877c-.213.385-.467.729-.688 1.107.22099-.36903.48298-.73002.688-1.107z" fill="#311d00"/><path d="m199.3011 231.57774c.77.139 1.517.262 2.279.393a112.0539 112.0539 0 0 0 -8.397-25.403c1.84602 7.34701 4.86301 15.785 6.118 25.01z" fill="#311d00"/><path d="m140.71511 282.36775c-14.333-.599-31.176-6.552-43.246-12.776-5.888-3.386-19.918-10.733-25.543-11.037 6.461 1.435 19.926 8.971 24.69 12.169 10.381 5.65 27.782 13.579 44.083 14.186 38.967 2.427 60.787-18.655 62.066-40.623-1.05-.172-2.116-.361-3.198-.533-3.28 27.765-32.825 41.066-58.86 38.622z" fill="#311d00"/><path d="m111.11811 192.11076a15.20333 15.20333 0 0 0 -11.062 4.51c-6.412 6.543-5.961 17.794 1.009 25.108a18.62359 18.62359 0 0 0 13.169 5.912 16.00819 16.00819 0 0 0 5.035-.779l10.553-15.58a19.81079 19.81079 0 0 0 -5.535-13.251 18.57513 18.57513 0 0 0 -13.169-5.912z" fill="#311d00"/><path d="m89.25011 237.94875c14.662 18.786 40.467 18.885 53.489 5.109-5.53501 2.697-28.676 17.90799-53.489-5.109z" fill="#311d00"/><path d="m160.46111 252.95476a5.19254 5.19254 0 0 1 -.55-2.247 5.06766 5.06766 0 1 1 8.7 3.584 7.79187 7.79187 0 1 0 -8.15-1.345zm7.831-6.535a4.73684 4.73684 0 0 0 -5.412-.738c-.714.434-1.444-.14-.533-1.066a4.575 4.575 0 0 1 6.584.795c.763 1.14001-.05699 1.894-.63899 1.00899zm-2.501-5.625a6.35161 6.35161 0 0 1 4.354 10.824c1.82-3.936.328-8.938-4.494-9.143-5.026-.205-6.683 4.829-5.805 7.453-1.69801-1.582-1.11601-9.11002 5.945-9.13401z" fill="#311d00"/><path d="m164.99411 245.54176a5.11208 5.11208 0 0 0 -5.084 5.166 5.19187 5.19187 0 0 0 .549 2.247 4.94162 4.94162 0 0 0 8.159 1.344 5.17405 5.17405 0 0 0 -3.616-8.749zm-.057 9.446a4.2722 4.2722 0 1 1 4.231-4.272 4.24815 4.24815 0 0 1 -4.231 4.27199z" fill="#311d00"/><path d="m162.34111 244.61476c-.902.919-.172 1.501.533 1.066a4.73962 4.73962 0 0 1 5.412.738c.582.886 1.402.131.64-1.008a4.58437 4.58437 0 0 0 -6.585-.796z" fill="#fff"/><path d="m165.65212 242.47475c4.821.205 6.314 5.207 4.493 9.143a6.35138 6.35138 0 0 0 -4.354-10.824c-7.06.024-7.642 7.552-5.945 9.135-.877-2.62399.77899-7.65899 5.806-7.454z" fill="#fff"/><path d="m169.16912 250.71574a4.22725 4.22725 0 1 0 -4.231 4.273 4.25043 4.25043 0 0 0 4.231-4.273zm-7.642-.032a3.374 3.374 0 1 1 3.378 3.37 3.391 3.391 0 0 1 -3.378-3.36998z" fill="#fff"/><path d="m168.28411 250.68276a3.3745 3.3745 0 1 0 -3.371 3.371 3.38417 3.38417 0 0 0 3.371-3.371zm-5.872.107c.099-.426.287-.205.386.107.918 1.467 3.477 1.574 4.264.442.393-.574.385.214.385.214-1.607 3.173-5.281 1.172-5.035-.771z" fill="#311d00"/><path d="m167.44911 251.56075s.008-.796-.386-.213c-.779 1.131-3.345 1.017-4.264-.443-.098-.312-.287-.533-.385-.107-.246 1.944 3.428 3.945 5.035.771z" fill="#fff"/><path d="m94.88411 250.59276c-1.943 1.361-2.698 4.092-2.329 6.839a3.04691 3.04691 0 0 1 .542-.886c1.681-1.591 4.772-1.066 6.904 1.189 2.14 2.247 2.509 5.355.82 6.954a3.49673 3.49673 0 0 1 -.656.361 5.76442 5.76442 0 0 0 4.33-1.132c2.779-2.321 2.902-6.863.344-10.496s-7.01899-4.90401-9.955-2.829zm6.495 7.675a6.035 6.035 0 0 0 -3.116-2.689c-.935-.181-.583-1.706.549-1.312a8.13294 8.13294 0 0 1 3.083 2.394c1.03301 1.70599-.074 2.55801-.516 1.60699zm1.271 5.314c5.182-6.732-4.904-14.588-8.881-8.34 3.321-10.184 16.703 2.592 8.88101 8.33998z" fill="#311d00"/><path d="m100.00211 257.74376c-2.132-2.255-5.223-2.788-6.904-1.189a3.23888 3.23888 0 0 0 -.542.885c-.893 1.698-.451 4.174 1.362 6.076 1.902 1.993 4.501 2.542 6.248 1.542a3.00861 3.00861 0 0 0 .656-.361c1.68101-1.591 1.312-4.707-.82-6.953zm-5.584 5.166c-1.812-1.911-2.124-4.551-.697-5.913 1.427-1.353 4.051-.902 5.863 1.009s2.124 4.543.697 5.896-4.051.91-5.863-1.001z" fill="#311d00"/><path d="m98.81211 254.26674c-1.131-.394-1.484 1.131-.549 1.312a5.99528 5.99528 0 0 1 3.116 2.689c.443.951 1.55.099.517-1.607a7.98362 7.98362 0 0 0 -3.084-2.394z" fill="#fff"/><path d="m93.76911 255.25075c3.977-6.249 14.063 1.607 8.881 8.339 7.82301-5.748-5.56-18.524-8.881-8.339z" fill="#fff"/><path d="m99.57511 257.99776c-1.812-1.911-4.436-2.362-5.863-1.009s-1.115 4.002.697 5.912c1.812 1.911 4.436 2.354 5.863 1.001s1.115-3.994-.697-5.896zm-.058 5.486c-1.189.877-3.181.164-4.657-1.198-1.583-1.443-1.714-3.69-.615-4.739 1.213-1.173 3.378-.435 4.682 1.049 1.058 1.206 1.96 3.863.599 4.879z" fill="#fff"/><path d="m94.2451 257.55476c-1.099 1.049-.968 3.296.615 4.739 1.476 1.353 3.468 2.075 4.657 1.198 1.37-1.017.46-3.674-.598-4.879-1.304-1.485-3.469-2.223-4.682-1.05zm4.272 5.354c-2.427.23-4.6-2.722-3.706-4.034 0 0 .664-.902.787-.057a4.64735 4.64735 0 0 0 3.181 3.337c.353.09.46.615-.262.746z" fill="#311d00"/><path d="m95.59711 258.82576c-.123-.844-.787.058-.787.058-.902 1.312 1.271 4.264 3.706 4.034.73-.131.615-.664.263-.746a4.64657 4.64657 0 0 1 -3.182-3.338z" fill="#fff"/><path d="m81.5791 272.23274a79.437 79.437 0 0 1 -30.315 9.725c-12.571 2.025-19.5574-6.781-17.1302-13.514 0 0 0 .009-.697-1.681-.6806-1.672-9.2578-19.196-7.6752-25.83-1.0168-2.345-1.5498-3.854-1.5498-3.854-.0656.279-.1886.755-.31979 1.304a20.489 20.489 0 0 0 -.05741 9.389c1.6482 6.191 3.0176 9.996 8.0114 20.984-2.009 7.437 4.9528 18.393 21.828 15.129 19.664-2.78 28.553-9.479 29.381-10.135.041-.033.164-.123.164-.123-.541-.517-1.099-.96-1.656-1.402z" fill="#311d00"/><path d="m43.11171 268.13274a5.59147 5.59147 0 0 1 -1.517-3.927c-.902-.788-1.7548-1.632-2.583-2.493.246.336.4756.672.7216 1.008a7.51472 7.51472 0 0 0 3.3702 5.421z" fill="#311d00"/><path d="m45.43711 269.15776a.35147.35147 0 0 1 .05.016.12183.12183 0 0 1 -.05-.016z" fill="#311d00"/><path d="m50.74211 269.20674c-3.034 6.207-14.9326 2.87-12.6366-5.199-1.7056-2.107-5.822-8.774-5.822-8.774-.1886.033.1886 1.976.164 1.853 1.3858 2.887 3.8048 7.856 3.8048 7.856-1.8614 11.734 14.9978 12.612 16.1868 3.993.976-.18.951-.041 1.566-.344-.73 3.501-2.411 5.42-4.395 6.429-3.608 1.82-4.666 5.018.812 4.641 5.576-.402 15.424-2.255 26.929-7.823 0 0 .975-.549 2.017-1.164a24.47388 24.47388 0 0 0 -13.235-3.625 85.07293 85.07293 0 0 0 -9.069.968c-2.854.426-5.117.82-5.117.82a27.28906 27.28906 0 0 1 -5.543.41 10.91449 10.91449 0 0 0 2.165.197c.533-.066 1.738-.148 2.173-.246z" fill="#311d00"/><path d="m33.44131 266.76274c.697 1.69.697 1.681.697 1.681-2.4272 6.733 4.5592 15.539 17.1298 13.514a79.76221 79.76221 0 0 0 30.315-9.725c.558-.328 1.148-.664 1.632-.984l-2.009-1.681c-.492.328-1.164.73-1.82 1.115-1.042.615-2.017 1.164-2.017 1.164-11.505 5.56-21.345 7.421-26.929 7.823-5.486.377-4.42-2.821-.812-4.641 1.984-1.009 3.657-2.927 4.395-6.429-.615.304-.59.164-1.566.345-1.189 8.618-18.04819 7.74-16.1868-3.994 0 0-2.4272-4.969-3.8048-7.855.0246.123-.3526-1.821-.164-1.854 0 0 4.1164 6.667 5.822 8.774-2.296 8.069 9.6026 11.398 12.6366 5.199-.443.099-1.64.181-2.173.246a12.25522 12.25522 0 0 1 -2.165-.197c-.304-.041-.64-.016-.927-.082a.11786.11786 0 0 1 -.049-.016 7.61255 7.61255 0 0 1 -2.3288-1.017 7.49021 7.49021 0 0 1 -3.3702-5.42c-.246-.336-.4756-.672-.72159-1.009a190.00394 190.00394 0 0 1 -13.21021-20.992c-.0164.074-.0246.156-.041.222-1.5908 6.634 6.9946 24.149 7.6752 25.83z" fill="#fff"/><path d="m207.8951 265.76274-1.271-.164a44.994 44.994 0 0 0 4.165-19.959c-.91-.155-1.837-.311-2.796-.475a42.76583 42.76583 0 0 1 -2.066 15.186c-.189.574-.435 1.148-.656 1.722-.017.033-.025.066-.041.107-.156.394-.296.779-.468 1.172-.246.566-.549 1.132-.836 1.698-.238.476-.459.951-.73 1.427-.205.377-.467.738-.689 1.107-.402.648-.787 1.295-1.23 1.935h.025a28.5761 28.5761 0 0 0 2.804.689c8.586 1.771 19.278.336 19.278.336 11.202-.73 20.213-3.739 27.249-8.413-.886-1.386-1.788-2.747-2.558-4.215-8.979 6.092-21.944 9.34-40.172 7.855z" fill="#311d00"/><path d="m263.19612 236.80876c1.812-.172 3.567-.369 5.346-.558a62.88823 62.88823 0 0 0 2.026-12.554l-.222-.041-.844-.139-.074-.853c-.566-5.56-.73-8.749-.492-9.471l.312-.91.943.164.262.049c-.082-1.05-.213-2.116-.344-3.173q-2.571.27-5.076.533c1.09 9.11.738 18.507-1.853 26.961z" fill="#311d00"/><path d="m258.51412 251.38875c.427.811.927 1.525 1.386 2.296a41.85776 41.85776 0 0 0 3.247-4.601c-1.435.156-2.853.304-4.231.443 0 0-.681.205-1.861.443l1.459 1.41z" fill="#311d00"/><path d="m199.51711 190.99574c5.88 4.46 12.038 6.937 21.082 8.06l-19.885-43.337c-4.182 11.44702-3.501 23.46002-1.197 35.277z" fill="#311d00"/><path d="m193.22011 185.40276c1.05 1.042 2.067 2.026 2.985 2.887-2.271-11.784-2.362-24.166 3.239-35.351l-1.402-3.05a44.83953 44.83953 0 0 0 -4.691 12.366c-1.607 7.38799-1.336 15.37499-.131 23.148z" fill="#311d00"/><path d="m206.4381 232.80675c1.468.246 2.894.501 4.288.738 7.364-4.534 13.112-12.792 16.22-20.655l-.836-1.813c-.107 0-.214-.016-.32-.024a65.562 65.562 0 0 1 -22.698-4.912c2.001 7.593 4.051 14.957 5.183 21.828-1.403-5.887-4.625-13.882-7.569-22.902-1.099-.541-2.189-1.181-3.288-1.829 3.132 10.357 6.683 18.868 7.56 22.854.427 1.935.96 4.214 1.468 6.715z" fill="#311d00"/><path d="m228.12511 184.53374c2.37 5.158 4.723 10.299 6.995 15.277h1.139c7.307-.049 16.671-.681 26.634-1.624a92.50251 92.50251 0 0 0 -4.354-13.12c-8.167-19.294-29.725-11.841-30.406-.533z" fill="#fff"/><path d="m210.7231 233.53676c13.538 2.329 23.534 4.043 23.534 4.043 1.574.229 2.952.401 4.264.541l-11.579-25.24c-3.10798 7.872-8.85599 16.121-16.219 20.656z" fill="#fff"/><path d="m251.82311 237.76775c3.863-.279 7.643-.598 11.374-.951 2.591-8.462 2.944-17.86 1.853-26.962-8.651.87-16.72 1.558-23.255 1.968-.025 0-.517-.008-1.279-.041 4.936 11.095 8.897 20.468 11.209 26.035a.88084.88084 0 0 1 .107-.049z" fill="#fff"/><path d="m206.62911 265.60677 1.271.164c18.22 1.484 31.193-1.771 40.172-7.856a64.877 64.877 0 0 1 -3.092-6.666l-.516-.722c-.156-.008-.296-.008-.451-.024a150.02916 150.02916 0 0 1 -16.318-1.993s-6.888-1.164-16.901-2.862a44.87062 44.87062 0 0 1 -4.165 19.959z" fill="#fff"/><path d="m269.20812 138.35976c-11.775 1.435-15.055 30.906-8.38 38.269-2.44401-11.29101.139-32.27501 8.38-38.269z" fill="#fff"/><path d="m203.0931 206.13274c-.795-.344-1.591-.68-2.386-1.066 2.952 9.02 6.175 17.007 7.569 22.903-1.132-6.88-3.182-14.235-5.183-21.829z" fill="#fff"/><path d="m196.20511 188.28175c1.107.984 2.205 1.869 3.312 2.706-2.296-11.817-2.984-23.83 1.198-35.277l-1.28-2.788c-5.6 11.193-5.51 23.575-3.239 35.35z" fill="#fff"/><path d="m221.45912 131.55376a37.55659 37.55659 0 0 0 -8.569 5.445 52.08305 52.08305 0 0 0 -4.863 4.272c.156.328.32.681.476 1.017a65.13258 65.13258 0 0 1 12.956-10.734z" fill="#fff"/><path d="m262.54311 99.81876c.074-.016.156-.024.23-.041-.353-.82-1.14-2.714-2.132-5.387l1.91 5.428z" fill="#311d00"/><path d="m294.37212 108.75775-.574-.05c2.182 8.381 1.624 19.689-9.725 22.214 5.74-2.509.919-4.231.468-4.428-12.194-2.812-32.489.935-34.711-.598 12.997-1.255 13.989-7.717 12.931-14.416-.672.139-1.344.271-2.033.41 1.222 7.011-1.673 9.66-5.576 11.119a34.77293 34.77293 0 0 1 -10.431 2.05l-3.878-.139c1.681-.566 5.01-.705 9.085-1.55 6.241-1.287 9.849-4.043 9.43-11.193-.82.172-1.615.32-2.443.492a9.95455 9.95455 0 0 1 -.837 5.1c-1.254 2.288-5.641 3.19-7.937 3.535 0 0-3.42.475-3.362.467-11.538 1.722-18.737 4.223-27.265 8.815 0 0-2.165 1.328-2.632 1.714a52.413 52.413 0 0 0 -8.077 6.322c.401.861.803 1.722 1.23 2.632a52.21309 52.21309 0 0 1 4.862-4.272 37.62273 37.62273 0 0 1 8.569-5.445 65.19268 65.19268 0 0 0 -12.956 10.734c5.412 11.554 12.571 26.929 19.615 42.246.68-11.299 22.238-18.753 30.405.533a91.04416 91.04416 0 0 1 4.354 13.12c1.714-.164 3.453-.336 5.191-.516q-.873-3.6285-2.025-7.241a87.37736 87.37736 0 0 1 -2.124-18.852c-.172-.213-.369-.41-.541-.631a63.823 63.823 0 0 1 1.312-16.113c.237.361.5.681.746 1.033 1.304-6.232 3.493-12.119 7.15-16.687.14-.205.254-.344.394-.525-.14-.311-.23-.533-.23-.533 1.583-2.025 2.477-4.067 6.864-4.78.18-.033.336-.074.524-.099 3.067-.401 2.28-.475 3.535-.401l.172.41c.057-.009.164-.017.197-.025a15.7099 15.7099 0 0 0 11.529-8.143c1.418-2.583 1.779-6.051 1.804-8.954-.123-.213 2.156-1.082 2.714-1.419-2.075-.902-3.969-2.681-5.724-5.928zm-33.546 67.871c-6.666-7.364-3.395-36.843 8.381-38.269-8.24101 5.994-10.82402 26.986-8.38102 38.26899z" fill="#311d00"/><path d="m271.9811 114.80075 10.546-.139c5.395-.927 7.806-3.231 8.503-6.257l-.254-.041c-1.271 5.47-7.323 5.912-8.815 6.109a74.81194 74.81194 0 0 1 -11.242 0c-2.485-.188-3.649-2.378-4.15-3.772a.94.94 0 0 1 -.147.025c1.82 4.362 5.568 4.067 5.568 4.067z" fill="#311d00"/><path d="m257.9261 86.69176 1.058 3.009c-.533-1.607-1.082-3.313-1.624-5.158a11.36818 11.36818 0 0 1 -.254-6.781c-1.509 4.207.82 8.922.82 8.922z" fill="#311d00"/><path d="m279.72011 74.62076-.771-.057a14.34692 14.34692 0 0 1 1.312 3.239l8.315 19.327h.189c-2.731-6.617-8.643-20.131-8.643-20.131l3.231.279c1.918 4.92 4.723 13.325 6.871 19.934l.32.017c-.992-3.018-6.658-20.418-6.658-20.418l-.328-.984.811-.681.32-.139-1.869-.148-3.108-.246z" fill="#311d00"/><path d="m259.3481 112.17676c.418 7.151-3.19 9.906-9.43 11.193-4.076.845-7.405.984-9.086 1.55l3.879.14a34.77293 34.77293 0 0 0 10.43-2.05c3.911-1.452 6.806-4.109 5.576-11.12-.459.091-.91.181-1.378.279z" fill="#fff"/><path d="m251.17913 82.20575a9.96973 9.96973 0 0 1 -.279-5.814s-2.665 2.116-.278 7.774l6.059 16.753q.6405-.123 1.28-.246c-.345-1.009-.722-2.05-1.157-3.157-2.189-5.585-4.838-12.842-5.617-15.31z" fill="#fff"/><path d="m291.02111 108.40476c-.697 3.026-3.107 5.33-8.503 6.257l-10.545.139s-3.748.295-5.568-4.067c-1.197.246-2.435.5-3.657.746 1.049 6.7.065 13.161-12.932 14.416 2.223 1.533 22.518-2.214 34.711.598.451.189 5.273 1.919-.467 4.428 11.348-2.517 11.906-13.833 9.725-22.213l-1.812-.164-.968-.14z" fill="#fff"/><path d="m283.3521 77.27776-3.231-.279s5.912 13.514 8.643 20.148l1.459.074c-2.148-6.601-4.944-15.006-6.871-19.935z" fill="#fff"/><path d="m258.9861 89.70075-1.058-3.009s-2.329-4.715-.82-8.922a7.4193 7.4193 0 0 1 .64-1.467 15.35609 15.35609 0 0 0 -2.772-.14c-1.681.14-3.255.213-2.107 4.207.844 2.96 1.164 3.657 1.82 5.486.796 2.189 3.362 8.798 5.232 14.423.877-.164 1.738-.303 2.616-.459l-1.911-5.428c-.517-1.378-1.074-2.944-1.648-4.691z" fill="#fff"/><path d="m256.90911 112.67676c.828-.172 1.615-.328 2.443-.492.468-.098.919-.188 1.378-.279.68-.139 1.353-.278 2.033-.41 1.214-.246 2.452-.5 3.658-.746a.93751.93751 0 0 0 .147-.024 8.63326 8.63326 0 0 1 -.336-1.157c7.724-.984 8.143-3.37 8.143-3.37 2.246-4.633-2.805-6.461-2.805-6.461-2.386-.984-8.569.565-8.569.565s-.09-.205-.213-.5c-.074.017-.148.025-.23.041-.877.156-1.738.295-2.615.459-.656.123-1.321.263-1.977.394-.426.082-.852.172-1.279.246-.82.156-1.632.312-2.452.484-18.335 3.673-36.276 8.503-46.354 12.726a51.05114 51.05114 0 0 0 -12.899 7.093.6823.6823 0 0 0 -.287.418 5.93858 5.93858 0 0 1 1.665-.246 3.5326 3.5326 0 0 1 3.173 1.788c.115.23 1.435 3.018 3.534 7.487a55.05977 55.05977 0 0 1 11.439-6.109c13.014-5.281 28.02-8.881 42.403-11.89zm-54.637 15.687s-1.689-3.461-2.148-4.568c-.804-1.943-1.312-1.877-2.091-2.32a63.659 63.659 0 0 1 10.332-5.133c12.464-5.216 38.285-11.874 60.614-15.474a4.02309 4.02309 0 0 1 4.608 3.018c.23 1.525-.549 3.304-3.468 3.764l-1.37.27c-17.859 3.575-38.121 7.626-55.046 14.498a39.54358 39.54358 0 0 0 -11.431 5.945z" fill="#311d00"/><path d="m190.00511 132.36575-.443-.952a2.01443 2.01443 0 0 0 .074.205c.099.197.23.46.369.747z" fill="#311d00"/><path d="m189.33411 130.72475a19.23863 19.23863 0 0 1 .024-2.648c.033-.041.058-.058-.008.024a4.38381 4.38381 0 0 0 -.016 2.624z" fill="#311d00"/><path d="m181.07511 135.16975c-2.074 3.075-9.512 14.842-16.145 25.576a5.17345 5.17345 0 0 1 6.273 1.279c.893.918 2.607 2.788 4.731 5.1 6.765-10.93 13.177-21.164 13.177-21.156 1.509-2.378 3.084-4.78 4.182-6.437l-.951-2.074c-.5.697-3.255 4.313-5.141 7.265l-12.612 20.533-3.37-3.707s-1.771-1.508-3.321-1.369c6.822-11.062 12.899-20.615 15.006-23.772a73.35529 73.35529 0 0 1 6.453-8.331 7.35366 7.35366 0 0 1 .919-3.05 7.02642 7.02642 0 0 1 .541-.689 32.21973 32.21973 0 0 0 -3.411 2.976c-2.124 2.444-3.969 4.601-6.347 7.864z" fill="#311d00"/><path d="m370.80812 192.02074-1.116-2.665c-2.32-6.043-6.527-7.175-13.152-6.355l-5.757.631c-11.578 1.034-30.192 2.936-45.756.312l3.559 8.528c6.339-.976 11.775-1.894 15.564-2.64l1.066-.361a4.24143 4.24143 0 0 1 2.23-2.026 8.96516 8.96516 0 0 1 8.282.607l.107.213c3.206-.68 7.453-1.508 17.744-2.952a6.84491 6.84491 0 0 1 2.862.714c.796-.123 1.37-.181 1.37-.181a3.46105 3.46105 0 0 1 3.132 3.166 3.20322 3.20322 0 0 1 -.918 3.066 4.5684 4.5684 0 0 1 -1.312 3.018s-.181.066-.46.156a137.60288 137.60288 0 0 1 4.797 14.538l1.583 6.503c.951-.221 1.919-.443 2.829-.689h.025a5.64113 5.64113 0 0 0 -.763-.115 145.858 145.858 0 0 0 -6.322-20.942c4.78-3.51 3.05-8.947-.181-9.931 0 0 5.896-1.254 8.619 8.947 9.881 27.691 17.556 65.632 15.366 78.744 0-1.689-2.624-4.83-7.125-5.756a35.32156 35.32156 0 0 0 -.041-3.854c-1.132-11.423-5.248-32.218-5.248-32.218 4.198-1.361 5.297-7.437 2.501-11.423a8.912 8.912 0 0 1 1.172 3.018c.607 3.305-.549 7.421-4.575 8.618-.099.025-.599.156-1.247.32l.263 1.402c1.705 9.209 4.28 23.108 5.256 31.644a7.735 7.735 0 0 1 -.164 2.107c3.37.681 8.347 2.403 9.331 6.938l.025.09v.09a5.96058 5.96058 0 0 1 -1.697 5.371c4.821-3.772 4.6-12.046 4.583-12.464-1.787-24.256-7.24-48.454-16.432-74.144zm-45.806-2.509c-5.051 1.271-16.441 2.525-16.441 2.525l-2.386-5.477a94.71353 94.71353 0 0 0 21.074.705 2.51441 2.51441 0 0 0 -2.247 2.24703zm10.964-1.55a5.37975 5.37975 0 0 0 -3.092-1.255c3.666.296 15.031-.844 15.031-.844-2.731.771-11.939 2.107-11.939 2.107z" fill="#311d00"/><path d="m265.44612 155.84975c-.246-.352-.5-.672-.746-1.033a63.82209 63.82209 0 0 0 -1.312 16.113c.172.222.369.418.541.632a71.67868 71.67868 0 0 0 32.546 22.632c-.386-.911-.763-1.821-1.157-2.731-18.392-6.043-31.447-23.386-31.447-23.386a55.54548 55.54548 0 0 1 .911-9.414c11.881 16.367 24.952 22.706 26.592 23.452-.393-.927-.787-1.853-1.172-2.772a14.01812 14.01812 0 0 1 -2.608-1.64c-4.141-2.55-14.055-10.2-22.148-21.861z" fill="#311d00"/><path d="m340.8701 198.26875c.115.262.213.566.328.828 11.185-2.034 15.785-3.419 17.064-3.862.279-.09.46-.156.46-.156a4.60251 4.60251 0 0 0 1.312-3.018 3.10127 3.10127 0 0 1 -1.066.632 16.44036 16.44036 0 0 1 -3.403 1.148c-2.534.615-5.404 1.353-9.381 2.107-2.854.533-5.716 1.14-5.478 1.001-.607-1.321-1.287-3.461-3.05-6.864 5.445-1.008 11.103-2.247 16.039-3.501a25.3565 25.3565 0 0 1 2.755-.566 6.86538 6.86538 0 0 0 -2.862-.713c-10.282 1.451-14.53 2.279-17.744 2.952l5.018 10.012z" fill="#311d00"/><path d="m320.0331 219.88374-6.789-16.261c-.607.099-1.238.205-1.853.296 2.263 5.723 4.665 11.455 6.568 15.924.66403.00801 1.33602.02501 2.074.041z" fill="#311d00"/><path d="m345.24211 268.93575c-.057-.77-.114-1.607-.18-2.509-15.26-7.88-25.207-24.969-25.207-24.969 1.55-.279 7.593-1.41 7.593-1.41a67.76508 67.76508 0 0 0 16.72 16.67c-.106-.918-.213-1.845-.328-2.779a60.58909 60.58909 0 0 1 -14.309-14.564c-3.821.763-7.896 1.517-12.152 2.255 7.249 12.022 17.162 21.509 27.872 27.298z" fill="#311d00"/><path d="m309.4951 219.34276c-2.55-6.027-5.322-12.702-5.945-14.219-.762.115-1.525.222-2.304.337 2.058 4.862 3.977 9.405 5.683 13.431z" fill="#311d00"/><path d="m280.1581 133.21776c-.197.025-.345.066-.525.099-4.395.713-5.281 2.763-6.864 4.78 0 0 .091.222.23.533 1.328 3.133 8.913 21.074 17.22 40.713.394.919.779 1.845 1.173 2.772.114.057.172.082.172.082l3.796 9.274h-.024c.393.91.771 1.821 1.156 2.731a.0248.0248 0 0 0 .008.016c4.289-.59 8.34-1.181 12.095-1.763l-3.559-8.528-21.164-50.709-.172-.41c-1.255-.073-.467 0-3.534.402zm26.338 59.286c-3.452.615-7.593 1.083-7.593 1.083l-24.33-56.998c2.616-2.846 6.864-2.936 6.864-2.936 1.591 3.231 25.051 58.851 25.051 58.851z" fill="#311d00"/><path d="m384.35012 273.25774v-.091l-.025-.09c-.984-4.534-5.961-6.265-9.331-6.937a27.07726 27.07726 0 0 0 -3.133-.435 64.06077 64.06077 0 0 1 -15.162-4.411c.41 4.247.632 8.397.706 12.456.746.196 1.484.475 2.23.631-.664.123-1.476.246-2.247.369.025 2.681.049 5.371-.09 7.913a6.615 6.615 0 0 1 -2.091 4.658c21.238-4.822 24.846-6.577 26.15-7.774a6.70439 6.70439 0 0 0 1.287-.935 5.95858 5.95858 0 0 0 1.698-5.371zm-27.126 11.627a41.28486 41.28486 0 0 0 .566-8.011c24.871-5.338 1.255-7.593 1.255-7.593 5.477 1.689 5.346 3.657 5.346 3.657a26.0857 26.0857 0 0 1 -6.601-1.115c.131-1.55-.279-7.872-.279-7.872 6.462 2.812 7.495 2.009 14.186 3.509 6.888 1.55 3.51 4.363 3.51 4.363-3.51 4.346-16.441 6.182-16.441 6.182 21.648-2.812 19.672-8.716 19.672-8.716 8.864 5.773.139 9.84-4.346 11.103-3.977 1.115-16.868 4.501-16.868 4.501z" fill="#311d00"/><path d="m320.03511 219.88374c-.746-.008-1.411-.025-2.075-.041 2.091 4.895 3.584 8.265 3.584 8.265-1.271.566-7.594 1.403-7.594 1.403-.574-1.091-2.443-5.429-4.452-10.168l-2.567-.451-36.457-6.405-.262-.049-.943-.164-.312.91c-.238.714-.074 3.904.492 9.471l.074.853.844.14.222.041 39.614 6.683c7.003-1.189 13.891-2.428 20.689-3.649l4.936-.886c1.115-.402 1.443-1.673.943-3.198-.008-.033-.394-1.197-.968-2.936-5.977.238-11.455.246-15.752.181zm-9.086 8.593-40.319-6.691a54.8153 54.8153 0 0 0 .18-7.306l37.187 6.79c.705 2.01702 2.952 7.20702 2.952 7.20702zm25.305-6.551c1.116 3.796-1.836 3.599-1.836 3.599l-10.816 2.255-2.682-5.912c9.414.14 15.326.058 15.326.058z" fill="#311d00"/><path d="m352.37313 234.99675c4.879-.894 13.997-3.174 17.277-4.01.648-.164 1.148-.295 1.246-.32 4.027-1.205 5.183-5.314 4.576-8.618a8.92708 8.92708 0 0 0 -1.173-3.018 8.49881 8.49881 0 0 0 -6.806-3.452h-.024c-.91.254-1.878.467-2.829.697a129.74466 129.74466 0 0 1 -16.433 2.583c1.558 5.207 2.936 10.635 4.174 16.146zm20.918-13.489s1.689 5.108-2.665 6.929c0 0-3.231 1.64-18.13 4.305 0 0-1.214-4.633-1.78-7.02 0 0 12.604-2.624 17.524-4.46 0 0-.099-1.64-2.534-1.591 0 0-12.784 3.231-15.736 3.509l-.705-1.959s10.963-2.108 14.62-2.952c0 0 7.733-2.665 9.414 3.23z" fill="#311d00"/><path d="m357.31911 282.67076c.139-2.55.114-5.231.09-7.913 0-.344.016-.664.008-1-.074-4.059-.295-8.2-.705-12.456a217.54437 217.54437 0 0 0 -4.338-26.297c-1.23-5.511-2.616-10.931-4.174-16.146a197.60188 197.60188 0 0 0 -7.011-19.762c-.106-.262-.213-.566-.328-.828l-5.018-10.012-.107-.214a8.96188 8.96188 0 0 0 -8.282-.606 4.20743 4.20743 0 0 0 -2.23 2.025l-1.066.361c-3.789.746-9.225 1.664-15.564 2.64-3.755.582-7.806 1.173-12.095 1.763-8.995 1.247-18.852 2.46-28.413 3.452q-2.619.2715-5.19.517c-9.955.935-19.32 1.574-26.634 1.624h-1.14c-2.271-4.986-4.616-10.119-6.994-15.277-7.044-15.318-14.211-30.693-19.615-42.246-.156-.337-.32-.697-.475-1.017-.427-.919-.829-1.771-1.23-2.632-1.419-3.034-2.682-5.716-3.74-7.954-2.107-4.469-3.419-7.257-3.534-7.487a3.50886 3.50886 0 0 0 -3.173-1.788 5.8914 5.8914 0 0 0 -1.665.246 7.81312 7.81312 0 0 0 -3.854 2.69 7.30793 7.30793 0 0 0 -.541.689 7.22144 7.22144 0 0 0 -.918 3.05c0 .008.016-.016 0 0a19.11173 19.11173 0 0 0 -.025 2.649 4.16436 4.16436 0 0 0 .23.68l.442.952c.878 1.795 2.411 4.985 2.411 4.985.033-.033 0 .008-.065.107l.951 2.074 4.748 10.349 1.402 3.05 1.279 2.788 19.885 43.337c-9.036-1.115-15.195-3.591-21.082-8.06-1.107-.837-2.206-1.722-3.313-2.706-.918-.853-1.935-1.845-2.985-2.887-5.551-5.51-12.521-13.087-17.277-18.269-2.124-2.313-3.838-4.182-4.732-5.101a5.17285 5.17285 0 0 0 -6.273-1.279 7.27082 7.27082 0 0 0 -1.64.902 6.55625 6.55625 0 0 0 -2.451 6.207c.164-.262.311-.5.483-.779 0 0-.073 1.493 2.452 4.166 2.534 2.681 5.937 6.076 5.937 6.076-.172.279-.303.484-.467.763 6.658 6.65 14.325 13.948 14.391 14.014a59.00141 59.00141 0 0 0 13.776 11.152c1.098.647 2.197 1.287 3.288 1.828.795.394 1.591.722 2.386 1.066a65.37862 65.37862 0 0 0 22.698 4.912c.106 0 .213.016.319.025l.837 1.812 11.578 25.239c-1.312-.139-2.698-.311-4.264-.541 0 0-9.996-1.714-23.534-4.042-1.394-.238-2.829-.492-4.288-.738q-2.37452-.4065-4.847-.837c-.762-.131-1.508-.254-2.279-.393-22.116-3.797-48.265-8.282-57.884-9.931l-1.394 2.059c6.15 1.057 90.487 15.53 90.495 15.539 13.842 2.058 21.394.795 21.558.762 29.512-2.115 54.768-6.658 79.179-11.062l5.051-.91.074-.024.074-.025c1.837-.279 3.091 1.583 3.091 1.583.714-1.189-.967-8.077-.967-8.077-.058-.148-4.477-14.154-6.691-19.73l.032.107c-.065-.213-1.213-2.714-3.337-3.132a5.68467 5.68467 0 0 0 -.271-2.895 3.80855 3.80855 0 0 1 -2.82 3.239c-22.419 4.502-59.926 9.118-82.804 10.488-.098.008-9.791-.066-17.146-.574-12.431-.697-26.601-3.6-40.32-18.483-.155-.139-15.334-14.596-21.443-21.287a4.1744 4.1744 0 0 1 .886-5.814c1.132-.886 3.649-1.722 4.92-.262 2.665 3.575 17.138 18.786 24.575 26.559 8.414 6.56 15.408 9.84 27.142 11.308 5.978.763 14.605.853 14.974.845 27.191-.345 69.806-6.732 87.362-9.857 2.108-.278 4.068 1.657 4.068 1.657l-.583-2.477.091-.705a4.47858 4.47858 0 0 1 1.779-1.369 4.98286 4.98286 0 0 1 5.256.68c11.825 21.788 22.665 62.935 20.804 92.775a4.09808 4.09808 0 0 1 -2.05 3.575s-3.338 2.419-6.011-1.804c0 0 .672 1.845-2.28 2.821-18.195 4.682-37.687 4.953-54.12.615-14.899-3.936-32.521-12.562-42.303-34.227 2.394-3.23 7.117-3.271 7.117-3.271 15.195 32.513 53.964 38.195 87.519 29.618 0 0 2.345-.459 3.501 1.214.984-1.96 1.05-8.43 1.05-8.43-.041-.943-.435-20.59-4.133-33.915-.041-.468-.869-2.829-2.263-3.256 0 0-.607-3.878-.697-3.165-.394 3.206-4.436 3.436-4.436 3.436-20.689 4.92-52.694 9.004-77.974 11.554-.041.008-1.96.303-5.388.459l-2.722.066a92.00805 92.00805 0 0 1 -20.164-1.608s-89.183-14.612-89.224-14.628a3.137 3.137 0 0 1 -1.755-2.116 7.53666 7.53666 0 0 1 .099-4.092l-3.879 5.74a5.12171 5.12171 0 0 1 -1.402 1.386c4.608.779 39.958 6.765 66.01 11.185 1.082.18 2.148.361 3.198.533 1.804.311 3.542.598 5.215.885.959.164 1.886.32 2.796.476 10.012 1.689 16.9 2.862 16.9 2.862a148.13126 148.13126 0 0 0 16.318 1.992c.156.017.296.017.451.025l.517.722a65.08073 65.08073 0 0 0 3.091 6.666c.779 1.468 1.681 2.829 2.559 4.215 8.626 13.522 22.099 23.28 39.417 27.847 17.934 4.74 38.294 4.272 57.892-1.476a6.46372 6.46372 0 0 0 6.126-.336 5.74891 5.74891 0 0 0 1.156-.828 6.58087 6.58087 0 0 0 2.091-4.658zm-119.401-70.733 11.423 25.814a31.13779 31.13779 0 0 1 -8.43.279c-1.402-3.067-3.066-7.02-10.397-23.042 2.48402-3.93601 7.404-3.051 7.404-3.051zm3.879-.131c6.535-.41 14.604-1.099 23.255-1.968 1.673-.172 3.362-.344 5.076-.533 10.291-1.099 21.131-2.427 31.119-3.854.779-.115 1.542-.221 2.304-.336-.09-.205-.139-.345-.139-.345 1.32-.164 7.872-1.131 7.872-1.131.033.09.074.18.106.262.615-.098 1.247-.197 1.854-.295 4.952-.82 9.471-1.656 13.284-2.476 0 0 1.705-.296 2.263.123.935.705.976 1.205.984 1.205v.057l.033.058c1.59 3.993 4.469 12.587 5.969 17.121.582 1.739.96 2.903.968 2.936.5 1.525.172 2.796-.943 3.198l-4.937.886c-6.797 1.221-13.685 2.46-20.688 3.649-13.202 2.246-26.929 4.321-41.64 5.879-1.779.189-3.534.385-5.346.558-3.723.352-7.511.68-11.374.951a.74878.74878 0 0 0 -.106.049c-2.313-5.568-6.265-14.94-11.21-26.035.763.025 1.255.041 1.28.041zm-50.168-81.434a4.52489 4.52489 0 0 1 .583-4.305 5.232 5.232 0 0 1 4.1-2.518 1.276 1.276 0 0 1 1.205.542l35.096 75.423a42.37589 42.37589 0 0 1 -8.848-.508c-14.59599-31.91501-32.11099-68.593-32.136-68.634zm71.529 118.711c16.835-1.804 36.925-4.469 54.21-7.454 4.256-.738 8.331-1.492 12.153-2.255 3.452-.688 6.715-1.385 9.676-2.091.762-.205 1.066.009 1.172.091a2.64651 2.64651 0 0 1 .779 1.722v.123l.041.106a103.997 103.997 0 0 1 2.641 14.613c.114.934.221 1.861.328 2.779.123.082.287.197.287.197.27 2.526.697 9.553.697 9.553a.4171.4171 0 0 0 -.082-.041c.073.902.131 1.739.18 2.509.197 2.961.295 4.896.295 4.945a3.81247 3.81247 0 0 1 -1.582 3.452c-31.259 8.463-67.634 4.002-84.05-23.64-.46-.771-.96-1.493-1.386-2.296l-1.46-1.411c1.181-.238 1.862-.443 1.862-.443 1.385-.139 2.804-.295 4.231-.442z" fill="#311d00"/><path d="m141.89711 211.15874c-3.165-1.788-4.428-3.92-4.814-5.879l-.533 1.049s-12.414 18.516-12.398 18.491a4.59034 4.59034 0 0 0 -.476 4.805 7.58821 7.58821 0 0 0 6.216 3.945 5.7167 5.7167 0 0 0 3.69-1.001 5.23311 5.23311 0 0 0 1.402-1.386l3.879-5.74c.303-1.123.705-1.927.795-1.812 0 0 .156.025.386.066l1.394-2.058 5.207-7.708c-1.845-1.099-3.502-2.075-4.74-2.78zm-8.651 18.63a3.18922 3.18922 0 0 1 -3.067 1.386 5.42284 5.42284 0 0 1 -4.33-2.665 2.37347 2.37347 0 0 1 .296-2.558l11.808-18.024c.738 1.435 6.666 4.986 6.666 4.986-2.484 3.673-11.357 16.867-11.365 16.875z" fill="#311d00"/><path d="m160.2731 216.07076a13.25034 13.25034 0 0 0 .787 1.722v-.016a6.09346 6.09346 0 0 0 2.156 2.222c6.511 3.871 10.111-1.066 10.144-1.107.024-.041 2.993-3.911-1.345-8.167a8.61644 8.61644 0 0 0 -6.355-2.009 7.3822 7.3822 0 0 0 -7.659-5.486h-.074c-4.329.304-5.33 2.649-5.83 3.994a6.75447 6.75447 0 0 0 .525 5.518c.02501.041 2.12401 4.18199 7.651 3.329zm5.69-6.248c4.879-.148 8.676 4.715 6.232 8.282l-.877.139c-4.248.55-6.634-1.131-7.347-4.903a5.63043 5.63043 0 0 0 1.992-3.526zm-5.666-5.191c2.411.763 4.174 2.887 4.043 5.068l.279.033c-.197 1.574-1.87 3.723-5.265 3.198a10.44855 10.44855 0 0 1 -.238-2.132 4.8124 4.8124 0 0 0 1.845.27 6.44946 6.44946 0 0 1 .074-.975 5.97881 5.97881 0 0 1 -1.927-.566 10.9484 10.9484 0 0 1 1.189-4.887zm-5.641 1.034a4.51947 4.51947 0 0 1 3.591-1.222 9.24149 9.24149 0 0 0 -1.049 4.313 7.03379 7.03379 0 0 1 -.935-.648v1.173c.205.377.541.5.976.795a10.283 10.283 0 0 0 .246 2.509c-.214-.09-.345-.27-.583-.377-3.378-1.894-2.255-6.527-2.255-6.527zm-1.239 1.5c-.557 7.028 5.855 8.044 9.455 6.724.795 5.683 5.732 5.839 8.126 5.453a6.74786 6.74786 0 0 1 -9.84-4.731c-4.534 1.386-9.659-2.28-7.741-7.454z" fill="#311d00"/><path d="m141.89711 211.15975c1.238.697 2.895 1.672 4.74 2.779 7.298 4.363 17.646 10.783 17.646 10.783 7.142 4.535 12.636-1.976 14.375-4.296 1.353-1.804 5.502-7.389 5.354-12.161-.139-4.649-3.706-7.134-6.888-9.225l-14.834-9.725c-.172.279-.393.631-.541.869l-2.001-1.05-1.238 1.96c-1.205.968-3.772-.024-5.371-1.558-.361-.344-2.124-2.156-1.066-3.419l.058-.066.041-.065c.032-.05.164-.263.377-.632l-1.968-1.033c.09-.148.229-.361.361-.574a6.06076 6.06076 0 0 0 -4.568 2.796c-1.304 2.6-6.953 11.866-7.962 12.882a7.38012 7.38012 0 0 0 -1.345 5.839c.386 1.96 1.648 4.092 4.814 5.879zm19.762-19.795c5.699 3.665 13.202 8.577 16.433 11.029 5.814 4.411 2.681 9.709 2.681 9.709.582-3.19-.853-6.364-4.575-8.865-3.231-2.164-15.876-10.586-15.876-10.586zm-12.415-4.568c-.246 4.256 6.298 7.676 9.389 6.831l16.548 11.07c2.476 1.788 4.92 4.838 3.468 8.954-.205-3.862-5.01-6.904-5.01-6.904s-17.786-10.463-23.239-13.883c-3.116-1.951-2.812-4.665-1.156-6.076zm-8.274 13.202c3.272-4.608 4.871-7.24 5.576-8.47a8.12419 8.12419 0 0 0 2.879 2.821c5.502 3.435 17.072 10.446 20.401 12.283 3.575 1.993 4.305 2.952 4.305 2.952 4.158 3.936 3.37 7.848 1.337 10.586-2.296 3.092-6.7 5.052-10.381 2.6l-4.994-3.059v-.024l-1.804-1.083-15.506-9.512-.05-.033-.041-.024a6.35543 6.35543 0 0 1 -3.23-3.592c-.435-1.591.073-3.436 1.508-5.453z" fill="#311d00"/><path d="m150.58611 184.32875 1.968 1.033c.836-1.369 3.255-5.363 9.159-14.932a49.56823 49.56823 0 0 0 5.847 6.347l-7.815 12.365 2.001 1.05c.148-.238.361-.591.541-.869 1.361-2.206 3.551-5.757 6.946-11.243.172-.27.295-.475.467-.762 0 0-3.403-3.395-5.937-6.076-2.525-2.665-2.452-4.166-2.452-4.166-.172.279-.311.508-.483.779-5.429 8.799-8.602 13.858-9.881 15.9-.132.21301-.27101.42599-.361.574z" fill="#311d00"/><path d="m283.5591 75.82675.327.984s5.675 17.392 6.659 20.418l.484.024c5.371.509 12.415 1.542 14.866 2.362l-.205-.058c2.846.41 4.346 3.494 4.125 6.118a5.85545 5.85545 0 0 1 -.984 2.665c2.583-2.772 1.632-8.102-2.148-9.193a31.84693 31.84693 0 0 0 -6.183-1.115l-10.119-22.763 5.896-2.534 14.481 26.56c8.266 13.112-7.06 17.86-12.923 9.84a18.19433 18.19433 0 0 1 2.616.189 23.50076 23.50076 0 0 0 -5.281-.492l-.787-.074c1.754 3.247 3.648 5.026 5.723 5.928a12.41579 12.41579 0 0 0 5.929.804 10.31446 10.31446 0 0 0 9.258-6.855c.057-.164 1.336-4.067-2.157-9.898l-15.941-28.987-.853.345-11.636 4.92-.319.139-.812.681zm5.002.139 9.553 21.927c-1.411-.279-5.068-.705-5.068-.705l-7.159-20.099 2.665-1.131z" fill="#311d00"/><path d="m290.76412 108.37175.254.041.968.14 1.812.164.574.049.787.074a23.50016 23.50016 0 0 1 5.281.492 19.15626 19.15626 0 0 1 3.001.656 4.80831 4.80831 0 0 0 6.363-4.289c.23-2.624-1.279-5.707-4.124-6.117l.205.057c-2.452-.828-9.504-1.853-14.867-2.361l-.484-.025-.32-.016-1.459-.074h-.189l.689 1.591c1.763 4.297 2.026 7.388 1.509 9.635zm14.686-7.043.099.032.106.025c1.46.205 2.329 2.107 2.189 3.674-.073.852-.582 2.779-3.493 2.779a65.33785 65.33785 0 0 0 -13.046-1.558c0-2.96-1.812-7.166-1.812-7.166 3.903.377 13.891 1.525 15.949 2.222z" fill="#311d00"/><path d="m271.2401 73.86575s-2.419.566-1.271 4.781c0 0 .205.508.369.951a13.29349 13.29349 0 0 0 3.288 4.527 14.25609 14.25609 0 0 0 .394 3.739l.074.246a10.0058 10.0058 0 0 0 2.074 4.174c2.805 3.23 5.962 1.41 5.084-2.493-.77-3.436-2.287-4.715-3.796-6.224.279-6.109-3.502-10.496-6.216-9.692zm6.421 17.958a8.89685 8.89685 0 0 1 -2.723-6.207 4.20209 4.20209 0 0 1 2.72302 6.207zm-3.526-9.052c-1.435-.911-3.239-4.404-3.288-6.577 3.35302.041 4.31301 4.92 3.28802 6.57699z" fill="#311d00"/><g fill="#fff"><path d="m273.20412 72.04575c-1.738-.713-5.978-.311-4.92 4.584a6.02187 6.02187 0 0 0 .378 1.173l.852 2.107 3.305 8.003.098.279 5.486 12.8a29.09665 29.09665 0 0 1 1.271 4.641h9.348s-.18-2.394-2.296-7.732c-1.591-4.035-7.06-16.515-8.175-19.106-1.27101-2.95199-2.95201-5.757-5.347-6.749zm4.248 11.521c1.509 1.509 3.026 2.788 3.796 6.224.878 3.903-2.279 5.724-5.083 2.493a10.10381 10.10381 0 0 1 -2.075-4.174l-.074-.246a14.236 14.236 0 0 1 -.394-3.739 13.29363 13.29363 0 0 1 -3.288-4.527c-.164-.442-.369-.951-.369-.951-1.148-4.215 1.271-4.78 1.271-4.78 2.714-.804 6.495 3.591 6.216 9.692z"/><path d="m270.85112 76.19576c.041 2.173 1.854 5.666 3.289 6.576 1.03299-1.65601.06501-6.535-3.289-6.576z"/><path d="m274.94112 85.61775a8.87746 8.87746 0 0 0 2.723 6.207 4.20186 4.20186 0 0 0 -2.723-6.207z"/><path d="m276.56511 101.87775c-.902-2.345-7.864-18.409-9.553-22.337a11.07518 11.07518 0 0 1 -1.115-4.944c.033-.558.131-.541.131-.541l-2.952 1.549c-2.107 2.665.705 9.693.705 9.693s2.108 6.601 4.781 13.21c7.019-1.829 13.153 10.906-.336 12.038 1.222 5.149 12.84102 2.99301 8.339-8.668z"/><path d="m264.10411 99.35275 2.526-.476-4.814-13.44s-2.058-4.682-.803-8.905l-2.149 1.033s-1.369 2.624.132 7.167c1.97601 5.978 5.108 14.621 5.108 14.621z"/><path d="m277.02712 112.83275c9.373.665 11.005-3.362 11.005-3.362-2.993-.057-8.61-.057-8.61-.057-.14 1.837-2.395 3.419-2.395 3.419z"/><path d="m167.89911 160.17976c1.55-.139 3.321 1.37 3.321 1.37l3.37 3.706 12.612-20.533c1.877-2.952 4.633-6.568 5.141-7.265.074-.098.098-.139.066-.107 0 0-1.526-3.198-2.411-4.985-.14-.287-.271-.558-.369-.746-.041-.074-.041-.14-.074-.205a5.58057 5.58057 0 0 1 -.23-.681 4.38811 4.38811 0 0 1 .017-2.624c.065-.082.041-.057.008-.025a74.25171 74.25171 0 0 0 -6.453 8.332c-2.116 3.157-8.192 12.71-15.006 23.771z"/><path d="m332.87511 186.70674a5.38071 5.38071 0 0 1 3.091 1.254s9.209-1.336 11.939-2.107c0 0-11.365 1.14-15.03.844z"/><path d="m270.8051 214.47975a56.48774 56.48774 0 0 1 -.18 7.307l40.319 6.691s-2.246-5.191-2.952-7.208z"/><path d="m323.59911 227.78874 10.816-2.255s2.952.197 1.836-3.6c0 0-5.912.09-15.325-.057l2.681 5.912z"/><path d="m274.58211 136.59676 24.329 56.998s4.141-.468 7.594-1.083c0 0-23.461-55.62-25.051-58.851 0 0-4.248.098-6.864 2.936z"/><path d="m313.9471 229.51076s6.322-.836 7.593-1.402c0 0-1.492-3.37-3.583-8.266-1.903-4.469-4.305-10.2-6.568-15.924-.041-.09-.074-.18-.107-.262 0 0-6.552.967-7.872 1.131 0 0 .057.14.139.345.632 1.517 3.395 8.191 5.945 14.218 2.009 4.74 3.879 9.078 4.453 10.168z"/><path d="m327.43712 240.05574s-6.044 1.132-7.593 1.41c0 0 9.946 17.081 25.206 24.969a.41855.41855 0 0 1 .082.041s-.426-7.027-.697-9.553c0 0-.164-.114-.287-.196a67.7817 67.7817 0 0 1 -16.719-16.671z"/><path d="m378.44011 269.28075s1.976 5.912-19.672 8.717c0 0 12.923-1.837 16.441-6.183 0 0 3.37-2.813-3.51-4.363-6.691-1.508-7.724-.705-14.186-3.509 0 0 .41 6.322.279 7.872a26.08574 26.08574 0 0 0 6.601 1.115s.131-1.96-5.346-3.657c0 0 23.608 2.255-1.255 7.593a41.28413 41.28413 0 0 1 -.566 8.011s12.883-3.386 16.868-4.501c4.493-1.271 13.21-5.339 4.346-11.103z"/><path d="m249.3311 237.75176-11.423-25.813s-4.92-.886-7.404 3.05c7.331 16.031 9.003 19.975 10.397 23.042a31.55674 31.55674 0 0 0 8.43-.279z"/><path d="m232.61312 199.52376-35.096-75.424a1.27639 1.27639 0 0 0 -1.205-.541 5.20726 5.20726 0 0 0 -4.1 2.517 4.50417 4.50417 0 0 0 -.583 4.305c.025.041 17.54 36.72 32.136 68.634a42.4089 42.4089 0 0 0 8.848.509z"/><path d="m138.8421 225.44374a7.4496 7.4496 0 0 0 -.098 4.092 3.13144 3.13144 0 0 0 1.754 2.115c.041.025 89.225 14.629 89.225 14.629a92.48826 92.48826 0 0 0 20.163 1.607l2.723-.065a48.75431 48.75431 0 0 0 5.387-.459c25.281-2.551 57.285-6.626 77.974-11.554 0 0 4.043-.23 4.436-3.436.09-.713.697 3.165.697 3.165 1.402.427 2.222 2.788 2.263 3.256 3.699 13.316 4.092 32.972 4.133 33.915 0 0-.065 6.461-1.049 8.429-1.165-1.672-3.502-1.213-3.502-1.213-33.554 8.577-72.324 2.894-87.518-29.619 0 0-4.715.041-7.118 3.272 9.783 21.665 27.404 30.291 42.304 34.227 16.433 4.338 35.916 4.067 54.12-.615 2.952-.976 2.279-2.821 2.279-2.821 2.665 4.215 6.011 1.804 6.011 1.804a4.09808 4.09808 0 0 0 2.05-3.575c1.861-29.848-8.979-70.987-20.803-92.775a4.96605 4.96605 0 0 0 -5.257-.68 4.55012 4.55012 0 0 0 -1.779 1.369l-.09.705.582 2.477s-1.96-1.944-4.067-1.657c-17.556 3.124-60.18 9.512-87.363 9.857-.369.008-9.004-.091-14.973-.845-11.734-1.476-18.729-4.748-27.142-11.308-7.438-7.773-21.911-22.984-24.576-26.56-1.271-1.467-3.788-.631-4.92.263a4.15747 4.15747 0 0 0 -.885 5.814c6.109 6.691 21.295 21.147 21.443 21.287 13.718 14.883 27.896 17.786 40.319 18.483 7.356.508 17.048.582 17.146.574 22.87-1.37 60.385-5.986 82.804-10.488a3.83258 3.83258 0 0 0 2.821-3.239 5.6769 5.6769 0 0 1 .27 2.894c2.124.427 3.272 2.92 3.338 3.133l-.033-.107c2.214 5.576 6.634 19.574 6.691 19.729 0 0 1.681 6.888.968 8.077 0 0-1.255-1.861-3.092-1.582l-.073.024-.074.025-5.051.91c-24.412 4.404-49.668 8.946-79.18 11.062-.164.033-7.724 1.304-21.557-.763-.009-.008-84.354-14.481-90.496-15.539-.229-.041-.385-.065-.385-.065-.09-.115-.492.689-.795 1.812z"/><path d="m142.68212 209.04375.041.025.049.032 15.506 9.512 1.813 1.083v.024l4.985 3.059c3.682 2.452 8.085.484 10.381-2.599 2.042-2.731 2.821-6.651-1.336-10.587 0 0-.73-.951-4.305-2.952-3.329-1.845-14.9-8.847-20.402-12.283a8.1245 8.1245 0 0 1 -2.878-2.821c-.705 1.222-2.296 3.862-5.576 8.471-1.435 2.017-1.943 3.862-1.509 5.453a6.36967 6.36967 0 0 0 3.231 3.591zm9.414-1.82c.5-1.345 1.5-3.69 5.83-3.977h.041l.041-.009a7.37483 7.37483 0 0 1 7.659 5.486 8.6186 8.6186 0 0 1 6.355 2.009c4.337 4.256 1.369 8.126 1.344 8.167-.032.041-3.632 4.978-10.143 1.107a6.04758 6.04758 0 0 1 -2.148-2.222v.017a12.774 12.774 0 0 1 -.796-1.722c-5.527.852-7.626-3.289-7.65-3.33a6.75444 6.75444 0 0 1 -.525-5.518z"/><path d="m180.76311 212.10176s3.133-5.289-2.681-9.708c-3.231-2.452-10.734-7.364-16.433-11.029l-1.337 1.287s12.637 8.413 15.876 10.586c3.722 2.493 5.166 5.67501 4.575 8.864z"/><path d="m150.3981 192.88075c5.453 3.42 23.239 13.883 23.239 13.883s4.805 3.05 5.01 6.904c1.452-4.124-1-7.166-3.468-8.954l-16.548-11.07c-3.091.845-9.627-2.583-9.389-6.831-1.648 1.411-1.96 4.125 1.156 6.077z"/><path d="m171.32811 218.25276.877-.14c2.444-3.567-1.353-8.438-6.232-8.282a5.585 5.585 0 0 1 -1.993 3.526c.714 3.772 3.1 5.453 7.348 4.904z"/><path d="m161.16611 214.61174a6.7458 6.7458 0 0 0 9.84 4.731c-2.394.378-7.339.23-8.126-5.453-3.592 1.321-10.012.304-9.455-6.724-1.918 5.175 3.207 8.84 7.741 7.454z"/><path d="m337.65212 190.07674c1.755 3.403 2.444 5.543 3.051 6.863-.238.14 2.624-.467 5.477-1 3.977-.746 6.847-1.484 9.381-2.107a16.97731 16.97731 0 0 0 3.403-1.148 3.08142 3.08142 0 0 0 1.066-.632 3.17737 3.17737 0 0 0 .918-3.067 3.46012 3.46012 0 0 0 -3.132-3.165s-.574.066-1.369.181a23.58223 23.58223 0 0 0 -2.756.565c-4.936 1.255-10.594 2.493-16.039 3.502z"/><path d="m349.96312 223.18877c2.952-.279 15.736-3.51 15.736-3.51 2.444-.041 2.534 1.591 2.534 1.591-4.92 1.837-17.523 4.461-17.523 4.461.565 2.386 1.779 7.019 1.779 7.019 14.899-2.665 18.13-4.305 18.13-4.305 4.363-1.82 2.665-6.929 2.665-6.929-1.681-5.896-9.414-3.231-9.414-3.231-3.657.845-14.62 2.952-14.62 2.952l.705 1.96z"/><path d="m374.29412 219.03075c2.796 3.985 1.697 10.061-2.501 11.423 0 0 4.124 20.803 5.248 32.217a35.32868 35.32868 0 0 1 .041 3.854c4.502.935 7.126 4.068 7.126 5.757 2.189-13.112-5.486-51.062-15.367-78.745-2.723-10.209-8.618-8.946-8.618-8.946 3.23.984 4.969 6.421.18 9.93a145.89858 145.89858 0 0 1 6.322 20.943c.287 0 .492.098.763.115a8.49211 8.49211 0 0 1 6.806 3.452z"/><path d="m264.78911 158.67076a55.49142 55.49142 0 0 0 -.91 9.414s13.054 17.343 31.447 23.386h.024l-3.796-9.274a1.61692 1.61692 0 0 1 -.172-.082c-1.64-.746-14.711-7.085-26.593-23.452z"/><path d="m306.1761 186.56777 2.386 5.477s11.39-1.254 16.441-2.525a2.51927 2.51927 0 0 1 2.247-2.247 94.70365 94.70365 0 0 1 -21.074-.705z"/><path d="m137.94112 207.92876-11.808 18.023a2.393 2.393 0 0 0 -.295 2.559 5.39708 5.39708 0 0 0 4.33 2.665 3.21437 3.21437 0 0 0 3.067-1.386c0-.008 8.88-13.194 11.365-16.876 0 0-5.929-3.559-6.667-4.985z"/><path d="m268.74813 107.92175 1.369-.271c2.92-.459 3.699-2.23 3.469-3.764a4.02244 4.02244 0 0 0 -4.608-3.017c-22.329 3.599-48.151 10.258-60.615 15.473a61.8553 61.8553 0 0 0 -10.332 5.133c.779.443 1.288.378 2.091 2.321.459 1.107 2.149 4.567 2.149 4.567a39.75923 39.75923 0 0 1 11.43-5.945c16.92499-6.871 37.18698-10.922 55.047-14.497z"/><path d="m152.13811 186.05876-.057.066c-1.058 1.254.697 3.067 1.066 3.419 1.599 1.542 4.157 2.526 5.371 1.558l1.238-1.96 7.814-12.365a48.90845 48.90845 0 0 1 -5.846-6.347c-5.904 9.569-8.323 13.563-9.16 14.932-.213.361-.352.582-.377.632l-.041.065z"/><path d="m291.32012 106.27275a65.86591 65.86591 0 0 1 13.046 1.558c2.903 0 3.419-1.919 3.493-2.78.139-1.574-.73-3.468-2.189-3.673l-.107-.025-.098-.033c-2.059-.697-12.046-1.845-15.949-2.222 0 0 1.812 4.207 1.812 7.167z"/><path d="m303.45412 109.97975a19.16713 19.16713 0 0 0 -3.002-.656 18.12075 18.12075 0 0 0 -2.615-.189c5.863 8.028 21.188 3.272 12.923-9.84l-14.481-26.56-5.896 2.534 10.119 22.763a31.92935 31.92935 0 0 1 6.182 1.115c3.781 1.099 4.732 6.429 2.149 9.193a5.8446 5.8446 0 0 1 -5.379 1.623z"/><path d="m298.11611 97.90076-9.553-21.927-2.665 1.132 7.159 20.098s3.657.426 5.068.705z"/><path d="m160.97011 211.06075a4.81242 4.81242 0 0 1 -1.845-.271 10.36823 10.36823 0 0 0 .238 2.132c3.403.525 5.068-1.623 5.264-3.198l-.278-.033c.131-2.181-1.624-4.305-4.043-5.067a10.85692 10.85692 0 0 0 -1.189 4.887 6.17686 6.17686 0 0 0 1.927.566 7.76862 7.76862 0 0 0 -.074.976z"/><path d="m156.91912 212.19176c.229.107.36.296.582.378a10.28582 10.28582 0 0 1 -.246-2.51c-.435-.295-.771-.41-.984-.795v-1.173a6.99763 6.99763 0 0 0 .934.648 9.15764 9.15764 0 0 1 1.05-4.313 4.55763 4.55763 0 0 0 -3.591 1.222s-1.124 4.633 2.255 6.527z"/><path d="m279.8691 74.76875h-1.353a11.76514 11.76514 0 0 0 -1.197-1.468c-.139-.14-.27-.287-.41-.41a3.91118 3.91118 0 0 0 -.41-.361 6.47262 6.47262 0 0 0 -.82-.607 6.84129 6.84129 0 0 0 -1.73-.803 7.60665 7.60665 0 0 0 -2.337-.361 4.94928 4.94928 0 0 0 -.861.09 1.436 1.436 0 0 1 -.32.057 5.26347 5.26347 0 0 0 -.68.197h-.017a5.57808 5.57808 0 0 0 -.803.361l-1.558.713a134.26846 134.26846 0 0 0 -13.735-19.163 137.096 137.096 0 0 0 -17.114-16.662c-29.561-24.092-70.93-36.974-120.622-29.709a160.88139 160.88139 0 0 1 33.227-4.469c40.426-1.181 81.434 13.145 111.602 45.961a150.02791 150.02791 0 0 1 12.341 15.309c.533.894 1.033 1.665 1.558 2.452.426.648.877 1.32 1.336 2.034.681 1.049 1.427 2.23 2.255 3.747.5.894 1.05 1.911 1.64 3.092z"/></g><path d="m267.37111 72.17676h-1.107v.55c-1.197.607-2.608 1.32-3.879 1.951h-12.644c-15.31-25.92-45.338-52.447-85.149-62.664a143.06162 143.06162 0 0 0 -59.893-2.214l11.201-3.157c49.692-7.265 91.061 5.625 120.622 29.709a134.32171 134.32171 0 0 1 30.849 35.825z" fill="#311d00"/><path d="m254.6931 85.86376c-.664-1.837-.976-2.526-1.82-5.486-1.148-3.993.426-4.067 2.107-4.206a14.56088 14.56088 0 0 1 2.772.139 6.21233 6.21233 0 0 1 2.017-2.214l-.287.115c-6.445-.238-6.322-.304-6.331-.304a5.73457 5.73457 0 0 0 -5.084 2.321c-2.222 3.469.599 9.241.804 9.75 0 0 4.092 11.775 5.363 15.44.82-.172 1.632-.328 2.452-.483l-6.06-16.753c-2.386-5.658.279-7.774.279-7.774a9.97575 9.97575 0 0 0 .278 5.814c.779 2.477 3.428 9.725 5.617 15.31.435 1.107.812 2.148 1.157 3.157.664-.123 1.32-.263 1.976-.394-1.87-5.625-4.436-12.234-5.232-14.424z" fill="#311d00"/><path d="m270.57112 69.64375s-1.993.492-3.657.984l-7.028 3.37s-.073.049-.123.074a6.22206 6.22206 0 0 0 -2.017 2.214 8.07381 8.07381 0 0 0 -.639 1.468 11.35217 11.35217 0 0 0 .254 6.781c.541 1.845 1.09 3.551 1.623 5.158.583 1.747 1.14 3.313 1.649 4.69.992 2.665 1.779 4.568 2.132 5.388.131.295.213.5.213.5s6.183-1.55 8.569-.566c0 0 5.051 1.837 2.804 6.462 0 0-.426 2.386-8.142 3.37a10.40652 10.40652 0 0 0 .336 1.156c.5 1.394 1.664 3.575 4.149 3.772a74.79959 74.79959 0 0 0 11.242 0c1.493-.205 7.544-.639 8.815-6.109.525-2.247.254-5.338-1.509-9.635l-.688-1.599-8.315-19.327a14.34661 14.34661 0 0 0 -1.312-3.239 8.69852 8.69852 0 0 0 -8.381-4.912zm-11.701 7.913 2.148-1.033c-1.255 4.215.804 8.905.804 8.905l4.813 13.44-2.526.475s-3.132-8.642-5.108-14.62c-1.50101-4.54299-.13102-7.167-.13102-7.167zm9.356 32.98c13.489-1.131 7.355-13.866.336-12.037-2.681-6.601-4.781-13.21-4.781-13.21s-2.812-7.028-.705-9.693l2.952-1.55s-.098-.008-.131.542a11.0751 11.0751 0 0 0 1.115 4.944c1.689 3.928 8.651 20 9.553 22.337 4.50201 11.66001-7.11701 13.817-8.339 8.66701zm8.807 2.288s2.255-1.582 2.394-3.419c0 0 5.617 0 8.61.057-.00002 0-1.64001 4.02601-11.00402 3.362zm1.517-34.046c1.115 2.599 6.584 15.071 8.175 19.106 2.116 5.338 2.296 7.724 2.296 7.724h-9.348a29.20225 29.20225 0 0 0 -1.271-4.633l-5.486-12.8-.098-.279-3.305-8.003-.853-2.107a5.87671 5.87671 0 0 1 -.377-1.173c-1.049-4.904 3.19-5.305 4.92-4.584 2.39498.984 4.07598 3.797 5.34698 6.749z" fill="#311d00"/></svg>