<svg height="316.227766" preserveAspectRatio="xMidYMid meet" viewBox="0 0 810 809.999993" width="316.227766" xmlns="http://www.w3.org/2000/svg" zoomAndPan="magnify"><path d="m595.445312 164.109375c171.515626 130.527344 40.992188 150.066406-92.957031 169.128906 0 0-56.523437-15.59375-154.464843-64.246093-222.132813-110.328126-152.199219-162.3125 22.382812-193.769532-279.417969-121.730468-512.296875 90.210938-255.386719 296.296875l-70.5 50.390625c57.90625 35.5 177.890625 109.96875 160.460938 224.007813l-59.550781 42.558593 181.867187 82.414063 143.507813-65.03125c1.039062-63.152344 113.917968-95.960937 162.484374-224.425781 267.355469-61.335938 199.257813-296.511719-37.839843-317.328125" fill="#fff"/><path d="m388.636719 554.039062-51.558594-58.640624-59.195313 8.824218 27.363282-45.074218-51.546875-58.679688 68.472656 30.816406 27.296875-45.085937 14.933594 64.101562 68.460937 30.769531-59.21875 8.847657zm84.578125-208.734374c-335.605469-129.617188-357.832032-235.960938-148.351563-272.710938-261.984375-71.1875-414.796875 118.6875-155.582031 299.75l-69.550781 49.71875c73.855469 49.339844 152.128906 122.425781 125.570312 237.433594l-35.042969 25.015625 134.605469 61.023437c125.273438-137.203125 190.789063-270.515625 148.351563-400.234375" fill="#021018"/><path d="m643.617188 184.523438c115.179687 90.171874 35.207031 147.785156-105.214844 163.4375 35.527344 149.746093-73.398438 286.90625-188.730469 393.113281l105.742187-47.90625c7.824219-60.863281 115.109376-92.511719 165.941407-227.566407 238.78125-53.273437 199.808593-224.632812 22.261719-281.082031" fill="#ea0028"/></svg>