<svg xmlns="http://www.w3.org/2000/svg" width="250" height="172.74" viewBox="0 0 250 172.74">
 <g transform="matrix(1.3333 0 0 -1.3333 44.95 139.79)">
  <g transform="matrix(1.5686 0 0 1.5686 -33.104 -23.819)">
   <g fill="#fff">
    <g transform="translate(69.079,75.598)" fill="#fff">
     <path d="m0 0-5.779-6.059c9.467 3.935 30.114 10.689 30.114 10.689l-6.616-6.471c18.056 5.346 31.777 7.879 31.777 7.879s-3.976-9.253-9.916-18.519c1.149 0.124 8.649 0.998 8.649 0.998s-6.754-11.188-14.553-19.252l4.365-1.086s-6.801-9.801-15.777-17.801c-12.908-11.503-19.55-9.736-19.55-9.736-9.581-6.94-17.262-3.423-17.262-3.423s3.319 8.374-0.109 9.263c-3.091 0.803-7.791-1.613-8.378-2.582-0.61-2.113-3.18-7.479-5.834-10.727-5.089-6.226-10.732-8.771-10.732-8.771s-4.445 3.793-4.473 10.25c0 0-3.054-3.234-8.024-4.291-3.479-0.74-8.226-0.139-13.09 3.922-3.267 2.726-3.891 11.886-3.891 11.886s3.069 5.864 8.988 11.001c-1.309 1.124-2.112 2.538-2.365 3.411 15.733 6.868 15.744 13.422 28.252 21.392 12.323 7.851 20.067 11.461 34.204 18.027" fill="#fff"/>
    </g>
   </g>
   <g>
    <path d="m61.415 70.037-4.942-5.181c9.761 4.322 30.376 11.339 30.376 11.339l-5.983-5.852c21.137 6.544 34.543 8.76 34.543 8.76s-4.381-9.763-10.211-18.057c2.823 0.27 8.711 0.955 8.711 0.955s-5.888-9.866-14.589-18.221c0.967-0.143 4.915-1.043 4.915-1.043s-5.247-7.787-14.368-15.775c-11.643-10.194-16.808-8.987-16.808-8.987s0.112 0.398 0.1 1.018c-8e-3 0.341-0.081 0.652-0.084 0.676-8.963-8.434-16.43-5.589-16.43-5.589s3.316 8.027-1.77 9.647c-3.939 1.254-9.973-1.971-10.453-3.697-0.524-1.878-3.026-7.09-5.507-10.145-4.304-5.299-9.067-7.717-9.067-7.717s-4.331 3.332-2.829 13.084c0.328 2.125-0.093 2.955-0.326 3.313-0.711 1.088-6.252-0.1-7.603-3.191-0.954-2.182 4.552-4.028 4.552-4.028s-2.541-2.803-6.983-3.711c-2.793-0.57-7.118-0.389-11.659 3.543-2.687 2.326-3.243 10.197-3.243 10.197s3.318 6.08 9.783 11.331c-1.275 0.835-2.244 2.25-2.489 2.806 13.026 5.611 14.812 13.545 29.518 22.411 6.855 4.133 14.074 8.198 22.846 12.114" fill="#004851"/>
    <path d="m110.66 75.632s-11.741-2.4714-17.36-3.6724c-10.551-2.254-18.926-5.1226-18.926-5.1226l5.0522 4.894s-16.198-5.1137-25.759-9.8057c-1.058-0.519-3.4849-1.5571-3.4849-1.5571l2.8989 3.6504s-7.6842-3.2805-17.723-9.9595c-9.111-6.061-13.308-14.217-24.009-19.124 0 0 0.69065-1.1529 2.9106-2.0039-2.094-1.502-7.146-5.542-10.979-11.896 0 0 0.72713-7.0599 2.6821-8.7319 7.97-6.817 14.859-1.3169 14.859-1.3169s-4.7707 2.113-3.4087 5.124c1.691 3.739 7.0485 4.3848 8.4595 4.3198 0 0 3.541 0.17414 2.606-5.4229-1.269-7.592 1.689-10.963 1.689-10.963s9.2597 5.3046 12.907 16.581c1.405 4.342 19.724 10.369 15.406-5.4492 3.555-0.823 12.12 2.3247 14.925 7.4517 0.586-0.735 1.0718-1.8013 1.1558-3.0513 7.475 0.586 20.849 14.838 25.324 22.096-1.192 0.494-3.333 0.88077-3.854 0.98877 9.262 8.837 13.365 17.087 13.365 17.087s-3.816-0.20703-7.355-0.45703c5.859 8.232 8.6177 16.34 8.6177 16.34zm-76.903-36.918c0.722-0.08 1.3458-0.41756 1.6948-0.99756 0.689-1.149 0.04645-2.7952-1.4355-3.6782-1.482-0.885-3.2402-0.66992-3.9302 0.47607-0.086 0.145-0.15175 0.29903-0.19775 0.45703 0.22 0.123 0.43267 0.2573 0.63867 0.4043 0.03-0.139 0.07588-0.27344 0.15088-0.39844 0.488-0.812 1.7612-0.94483 2.8462-0.29883 1.085 0.649 1.5695 1.8306 1.0825 2.6426-0.275 0.459-0.80479 0.6932-1.4048 0.7002 0.203 0.251 0.38918 0.48587 0.55518 0.69287z"/>
    <path d="m73.208 67.912s-9.8433-2.3555-23.175-8.6865c-3.759-1.784-5.7437-2.8462-5.7437-2.8462 0.577 0.667 3.25 3.0127 3.8979 3.8467-9.894-4.852-13.505-8.062-19.384-14.294-5.244-5.56-5.0063-6.5295-12.965-10.833 0 0 5.8623-2.4051 11.802 1.4619 1.027 0.668 1.9965 1.6064 2.9165 2.5884 2.1 2.436 1.4059 4.9364 4.1938 6.7324-0.397-0.927-1.0524-2.1019-1.1104-3.3149 1.34 1.845 3.9886 4.2742 6.9346 6.0322 7.494 4.469 12.466 5.2383 12.466 5.2383-0.191-0.066-0.3765-0.13415-0.5625-0.20215-10.243-4.258-11.914-9.8227-11.966-10.408-0.112-1.255 3.7019 1.5565 6.8188 1.9365-3.279-1.158-6.0945-3.9479-7.4575-7.1689-0.577-1.364-0.75405-2.9169-2.373-4.1309-0.456-0.416-1.0565-0.82599-1.8545-1.188-2.153-0.973-3.6405-0.48202-4.1455-0.14502-0.303 0.201-0.48926 0.54199-0.48926 0.54199 1.043-0.294 2.4619-0.03917 3.7559 0.77783 0.956 0.603 1.6659 1.4 2.0479 2.209h0.0015c0.208 0.431 0.59837 1.2722 0.02637 2.3452-0.291 0.546-0.89696 0.84075-1.585 0.94775 0.043 0.115 0.40237 1.028 1.5264 2.376-1.526-1.098-2.5153-2.4176-3.0293-3.0146 0.722-0.081 1.3454-0.41902 1.6934-0.99902 0.69-1.148 0.04692-2.7952-1.4341-3.6782-1.483-0.884-3.2402-0.67092-3.9302 0.47607-0.087 0.145-0.15175 0.29903-0.19775 0.45703-0.079-0.045-0.15584-0.09084-0.23584-0.13184-0.464-0.24-1.4004-0.63721-1.4004-0.63721 0.443-0.103 1.0358-0.1491 1.4048-0.0791 0.122-1.623 1.1375-4.2318 6.8525-2.7568-1.633-1.607-5.5648-1.5-7.9468-0.25195 0.324-0.243 0.69858-0.49937 1.1426-0.77637 7.166-4.452 15.417-0.26158 17.433 0.89941 0.492 0.314 0.98968 0.60014 1.4927 0.84814 0 0-2.0899-1.8422-3.5039-4.6992 2.511 3.211 9.8059 8.3579 19.588 7.1689 0 0-5.1185 2.4866-13.189-0.14941 0 0 11.132 6.5985 25.223 3.7925-9.142 3.07-17.374 1.6116-22.233-0.02344-2.852-1.099-4.5454-2.0098-4.5454-2.0098s0.71432 0.52197 2.0493 1.314c3.3 2.429 7.831 5.0563 12.312 6.9023 3.112 1.281 9.3115 2.938 11.832 3.082 0 0-6.4834 1.0989-12.398-0.39111 0 0 9.3652 3.652 18.451 3.854 3.043 0.068 10.006-0.30029 10.006-0.30029-10.043 2.982-20.451 3.569-27.565 2.4771-4.042-1.002-7.2305-2.001-7.2305-2.001s0.55798 0.28282 1.626 0.73682c2.563 1.523 13.083 7.1746 32.637 10.225 0 0-2.5006 0.29736-5.5576 0.29736-3.125 1e-3 -9.271-1.0547-9.271-1.0547 4.451 2.034 12.843 4.0039 23.218 5.0039 0 0-15.854 1.8812-35.046-4.1338-0.165-0.07-0.25342-0.1084-0.25342-0.1084s2.025 1.4654 4.311 2.9824c1.685 1.118 4.1221 2.8623 4.1221 2.8623zm-41.493-31.535c-0.254-0.246-0.52074-0.48498-0.80274-0.70898 0.042-0.12 0.14432-0.32791 0.38232-0.50391 0.419-0.309 1.0635-0.25635 1.0635-0.25635-0.566 0.427-0.67107 1.0102-0.64307 1.4692z" fill="#fff"/>
    <path d="m102.37 69.967s-8.8258-0.7118-18.844-2.5708c-10.418-1.934-17.15-4.6517-18.494-5.2207 19.192 6.015 35.045 4.1338 35.045 4.1338-10.375-1.001-18.766-2.9714-23.218-5.0054 0 0 6.1475 1.0562 9.2725 1.0562 3.057 0 5.5576-0.29736 5.5576-0.29736-19.555-3.051-30.074-8.7026-32.638-10.225 2.598 1.101 8.2253 3.2233 16.28 4.8193 7.598 1.505 16.425 1.8799 19.979 2.2339 5.069 4.896 7.0591 11.076 7.0591 11.076zm-18.382-14.465c-3.9049-0.03279-8.0032-0.25133-11.666-0.81445-2.527-0.389-5.2481-0.98796-7.6641-1.585 7.113 1.091 17.522 0.50394 27.565-2.4771 0 0-6.9634 0.36829-10.006 0.30029-9.086-0.202-18.453-3.8555-18.453-3.8555 5.915 1.491 12.4 0.39258 12.4 0.39258-2.521-0.145-8.7205-1.801-11.832-3.082-4.482-1.846-9.0125-4.4743-12.313-6.9023 5.284 3.133 20.31 10.497 39.379 6.4336 0 0 1.2465 0.95862 4.5645 4.5996 3.52 3.859 4.2671 6.2402 4.2671 6.2402s-7.6514 0.82214-16.242 0.75zm-31.507-1.8662c-0.106-0.037-0.35746-0.12823-0.37646-0.13623-9.386-3.502-14.321-9.0658-13.591-11.883 0.274-1.058 2.1108 0.03516 2.1108 0.03516s-2.4825-2.1026-3.4775-4.3726c-6e-3 -0.125 3.38e-4 -0.58022-0.32666-1.2202 0.242-0.056 0.49406-0.09185 0.70605-0.06885 0.642 0.07 1.396 0.52295 1.396 0.52295s0.01456-1.3469-1.4194-2.6499c1.619 1.215 1.796 2.7683 2.373 4.1323 1.364 3.221 4.1785 6.0109 7.4575 7.1689-3.117-0.38-6.9298-3.193-6.8188-1.938 0.052 0.585 1.7243 6.1512 11.966 10.409zm20.931-11.638c-7.7051-0.08004-14.609-2.1674-18.896-3.8232 4.86 1.634 13.092 3.0934 22.235 0.02344-14.091 2.807-25.223-3.7939-25.223-3.7939 8.07 2.637 13.188 0.15088 13.188 0.15088-9.783 1.19-17.076-3.9594-19.586-7.1704-0.194-0.392-0.3766-0.80247-0.5376-1.2305 2.264 2.134 4.687 3.864 10.273 5.25 13.233 3.282 22.43-0.69694 23.534-4.8779 0 0 0.04391 0.02138 0.12891 0.06738 0.536 0.291 2.593 1.1679 5.688 4.2129 3.25 3.199 5.2873 5.7657 6.0923 7.4927-5.076 2.5444-10.35 3.56-15.344 3.687-0.52026 0.01323-1.0376 0.01705-1.5513 0.01172zm-48.876-9.8101c-2.15-0.658-4.8773-0.47099-6.3823-0.062988-1.736-1.197-7.9821-3.8707-11.956-10.597 0.205-2.28 0.44142-5.1969 1.3784-6.7969 3.821-6.035 10.496-3.8057 10.496-3.8057s-10.141 4.5 0.69873 11.061c3.461 2.094 13.036 3.6656 18.746 1.8296 0.486-0.18 1.0884-0.60631 1.0474-0.71631-0.592-2.906-2.9884-11.048-6.9624-13.361-2.197 3.208 3.6005 10.576-2.3145 10.856 0 0 1.4729-2.2812 0.83789-5.3452-0.278-1.345-1.1946-4.9358 0.44238-8.6528 0 0 8.9907 5.3776 11.659 17.788 0.346 1.223 0.57889 2.2573 1.1089 3.1963-11.55-4.552-18.798 4.6069-18.798 4.6069zm-2.7246-1.8516c0.619-0.507 1.2603-0.861 2.9443-1.021 0 0-3.0229-0.87913-3.6929-1.0781-0.829-0.247-2.6181-0.49956-1.7681 0.77344 0 0 1.0766 0.57968 2.5166 1.3257zm36.138-0.84961c-7.221-0.15596-10.534-3.3867-10.534-3.3867s3.3356 2.5111 8.9956 1.6011c8.373-1.346 8.1343-6.6226 8.1343-6.6226s3.7678 1.6225 5.6748 4.9365c0 0-2.3651 2.2557-6.6401 3.0117-2.0901 0.369-3.9645 0.49595-5.6309 0.45996z" fill="#a2aaad"/>
   </g>
  </g>
 </g>
</svg>