<?xml version="1.0" encoding="utf-8"?>
<!-- Generator: Adobe Illustrator 19.0.0, SVG Export Plug-In . SVG Version: 6.00 Build 0)  -->
<svg version="1.1" id="Layer_1" xmlns="http://www.w3.org/2000/svg" xmlns:xlink="http://www.w3.org/1999/xlink" x="0px" y="0px"
	 viewBox="-289 381 31.9 32" style="enable-background:new -289 381 31.9 32;" xml:space="preserve">
<style type="text/css">
	.st0{fill:url(#SVGID_1_);}
	.st1{fill:url(#SVGID_2_);}
	.st2{fill:url(#SVGID_3_);}
	.st3{fill:none;stroke:#FFFDFD;stroke-width:0.25;stroke-miterlimit:10;}
	.st4{fill:none;stroke:#FFFDFD;stroke-width:0.25;stroke-miterlimit:10;stroke-dasharray:0.9919,0.9919,0.9919,0.9919;}
	
		.st5{fill:none;stroke:#FFFDFD;stroke-width:0.25;stroke-miterlimit:10;stroke-dasharray:0.9919,0.9919,0.9919,0.9919,0.9919,0.9919;}
	.st6{fill:none;stroke:#FFFDFD;stroke-width:0.25;stroke-miterlimit:10;stroke-dasharray:0.8245,0.8245,0.8245,0.8245;}
	
		.st7{fill:none;stroke:#FFFDFD;stroke-width:0.25;stroke-miterlimit:10;stroke-dasharray:0.8245,0.8245,0.8245,0.8245,0.8245,0.8245;}
	.st8{fill:none;stroke:#FFFDFD;stroke-width:0.25;stroke-miterlimit:10;stroke-dasharray:0.8269,0.8269,0.8269,0.8269;}
	
		.st9{fill:none;stroke:#FFFDFD;stroke-width:0.25;stroke-miterlimit:10;stroke-dasharray:0.8269,0.8269,0.8269,0.8269,0.8269,0.8269;}
	.st10{fill:url(#SVGID_4_);stroke:#282828;stroke-width:0.25;stroke-miterlimit:10;}
</style>
<g>
	<linearGradient id="SVGID_1_" gradientUnits="userSpaceOnUse" x1="-273.06" y1="411.1458" x2="-273.06" y2="382.2067">
		<stop  offset="6.075541e-002" style="stop-color:#B63100"/>
		<stop  offset="0.1725" style="stop-color:#CF2600"/>
		<stop  offset="0.3498" style="stop-color:#FF1100"/>
		<stop  offset="0.7605" style="stop-color:#FF1100"/>
		<stop  offset="0.8144" style="stop-color:#FF1100"/>
	</linearGradient>
	<path class="st0" d="M-288.1,382.2h28.9c0,0,1.1-0.1,1.1,1.1s0,27.8,0,27.8l-15-7.4v-21.3v-0.2"/>
	<linearGradient id="SVGID_2_" gradientUnits="userSpaceOnUse" x1="-273.06" y1="411.1458" x2="-273.06" y2="382.2067">
		<stop  offset="6.075541e-002" style="stop-color:#B63100"/>
		<stop  offset="0.1725" style="stop-color:#CF2600"/>
		<stop  offset="0.3498" style="stop-color:#FF1100"/>
		<stop  offset="0.7605" style="stop-color:#FF1100"/>
		<stop  offset="0.8144" style="stop-color:#FF1100"/>
	</linearGradient>
	<path class="st1" d="M-258,382.2H-287c0,0-1.1-0.1-1.1,1.1s0,27.8,0,27.8l15-7.4v-21.3v-0.2"/>
</g>
<g>
	<linearGradient id="SVGID_3_" gradientUnits="userSpaceOnUse" x1="-273.06" y1="408.8201" x2="-273.06" y2="383.4392">
		<stop  offset="6.075541e-002" style="stop-color:#B63100"/>
		<stop  offset="0.1725" style="stop-color:#CF2600"/>
		<stop  offset="0.3498" style="stop-color:#FF1100"/>
		<stop  offset="0.7605" style="stop-color:#FF1100"/>
		<stop  offset="0.8144" style="stop-color:#FF1100"/>
	</linearGradient>
	<path class="st2" d="M-286.6,408.8v-24.6c0,0-0.1-0.7,0.5-0.7s25.9,0,25.9,0s0.7-0.2,0.7,0.7s0,24.7,0,24.7l-13.5-6.5L-286.6,408.8
		z"/>
	<g>
		<polyline class="st3" points="-286.1,408.6 -286.6,408.8 -286.6,408.3 		"/>
		<line class="st4" x1="-286.6" y1="407.3" x2="-286.6" y2="403.9"/>
		<path class="st5" d="M-286.6,403.4v-19.2c0,0-0.1-0.7,0.5-0.7s25.9,0,25.9,0s0.7-0.2,0.7,0.7c0,0.8,0,19.2,0,23.7"/>
		<path class="st3" d="M-259.5,408.3c0,0.3,0,0.5,0,0.5l-0.5-0.2"/>
		<line class="st6" x1="-260.7" y1="408.2" x2="-263.3" y2="407"/>
		<line class="st7" x1="-263.7" y1="406.8" x2="-272.2" y2="402.7"/>
		<polyline class="st3" points="-272.6,402.5 -273,402.3 -273.5,402.5 		"/>
		<line class="st8" x1="-274.2" y1="402.9" x2="-276.8" y2="404.1"/>
		<line class="st9" x1="-277.2" y1="404.3" x2="-285.8" y2="408.4"/>
	</g>
</g>
<linearGradient id="SVGID_4_" gradientUnits="userSpaceOnUse" x1="-294.25" y1="382.2067" x2="-294.25" y2="382.2067">
	<stop  offset="6.075541e-002" style="stop-color:#B63100"/>
	<stop  offset="0.1725" style="stop-color:#CF2600"/>
	<stop  offset="0.3498" style="stop-color:#FF1100"/>
	<stop  offset="0.7605" style="stop-color:#FF1100"/>
	<stop  offset="0.8144" style="stop-color:#FF1100"/>
</linearGradient>
<path class="st10" d="M-294.3,382.2"/>
</svg>
