<?xml version="1.0" encoding="utf-8"?>
<!-- Generator: Adobe Illustrator 19.0.0, SVG Export Plug-In . SVG Version: 6.00 Build 0)  -->
<svg version="1.1" id="Layer_1" xmlns="http://www.w3.org/2000/svg" xmlns:xlink="http://www.w3.org/1999/xlink" x="0px" y="0px"
	 viewBox="0 0 280 275" style="enable-background:new 0 0 280 275;" xml:space="preserve">
<style type="text/css">
	.st0{fill:none;stroke:#1A1A1A;stroke-width:3;stroke-miterlimit:10;}
	.st1{fill:url(#XMLID_12_);}
	.st2{fill:none;stroke:#000000;stroke-width:3;stroke-miterlimit:10;}
	.st3{fill:#FFFFFF;stroke:#000000;stroke-miterlimit:10;}
	.st4{fill:#FFFFFF;}
	.st5{fill:#E30000;stroke:#000000;stroke-width:2;stroke-miterlimit:10;}
	.st6{stroke:#E30000;stroke-width:1.5;}
	.st7{fill:url(#XMLID_13_);stroke:#000000;stroke-width:3;stroke-miterlimit:10;}
	.st8{fill:url(#XMLID_15_);stroke:#000000;stroke-miterlimit:10;}
	.st9{fill:url(#XMLID_31_);stroke:#000000;stroke-miterlimit:10;}
	.st10{fill:url(#XMLID_33_);stroke:#000000;stroke-miterlimit:10;}
	.st11{fill:url(#XMLID_34_);stroke:#000000;stroke-miterlimit:10;}
	.st12{fill:url(#XMLID_36_);stroke:#000000;stroke-miterlimit:10;}
	.st13{fill:url(#XMLID_45_);stroke:#000000;stroke-miterlimit:10;}
	.st14{fill:url(#XMLID_47_);stroke:#000000;stroke-miterlimit:10;}
</style>
<polygon id="XMLID_6_" class="st0" points="59.6,40.5 203.7,40.5 134.1,9.2 "/>
<g id="XMLID_5_">
	
		<image style="overflow:visible;opacity:0.68;" width="204" height="110" id="XMLID_39_" xlink:href="6789627C.png"  transform="matrix(1 0 0 1 39 175)">
	</image>
	<g id="XMLID_30_">
		<linearGradient id="XMLID_12_" gradientUnits="userSpaceOnUse" x1="133.6484" y1="261" x2="133.6484" y2="185.4946">
			<stop  offset="9.851808e-003" style="stop-color:#E30000"/>
			<stop  offset="0.134" style="stop-color:#DE0202"/>
			<stop  offset="0.2865" style="stop-color:#CF0809"/>
			<stop  offset="0.4538" style="stop-color:#B61215"/>
			<stop  offset="0.6306" style="stop-color:#932025"/>
			<stop  offset="0.711" style="stop-color:#81272D"/>
		</linearGradient>
		<path id="XMLID_38_" class="st1" d="M50.3,203.8l82.6,57.2l84.1-59C217,202,113.8,163.7,50.3,203.8z"/>
		<path id="XMLID_37_" class="st2" d="M50.3,203.8l82.6,57.2l84.1-59C217,202,113.8,163.7,50.3,203.8z"/>
	</g>
</g>
<g id="XMLID_97_">
	<path id="XMLID_98_" class="st3" d="M101,206.3c0.5,0,1.2,0.1,1.9,0.2c0.7,0.1,1.4,0.3,2.3,0.5l-0.3,2.4c-0.1,0.4-0.3,0.6-0.6,0.6
		c-0.1,0-0.2,0-0.3-0.1c-0.5-0.1-1-0.3-1.4-0.3c-0.5-0.1-0.9-0.1-1.2-0.1c-0.9,0-1.5,0.2-2,0.6c-0.4,0.4-0.7,1.2-0.9,2.3l-0.6,5.1
		c0,0.1,0,0.3,0,0.4c0,0.1,0,0.2,0,0.3c0,0.7,0.2,1.3,0.6,1.6s1,0.5,1.7,0.5c0.4,0,0.8,0,1.3-0.1c0.5-0.1,0.9-0.2,1.4-0.4
		c0.1,0,0.2-0.1,0.3-0.1c0.4,0,0.5,0.2,0.5,0.6v0.2l-0.3,2.3c-0.8,0.3-1.6,0.5-2.3,0.6c-0.7,0.1-1.4,0.2-1.9,0.2c-3.3,0-5-1.6-5-4.8
		c0-0.2,0-0.5,0-0.7c0-0.2,0-0.5,0.1-0.7l0.6-5.2c0.3-2.1,0.9-3.6,1.9-4.5C97.7,206.7,99.1,206.3,101,206.3z"/>
	<path id="XMLID_100_" class="st3" d="M116.7,223.2h-2.8c-0.5,0-0.8-0.3-0.7-0.8l0.7-6.1h-4.4l-0.7,6.2c-0.1,0.5-0.3,0.7-0.8,0.7
		h-2.8l2-16.6h2.7c0.5,0,0.7,0.2,0.7,0.7v0.2l-0.7,5.6h4.4l0.7-5.7c0.1-0.5,0.3-0.7,0.8-0.7h2.9L116.7,223.2z"/>
	<path id="XMLID_102_" class="st3" d="M131.6,223.2h-3.1c-0.5,0-0.8-0.2-0.8-0.7c0-0.4-0.1-0.9-0.1-1.3c0-0.4-0.1-0.8-0.1-1.2h-4.8
		c-0.2,0.4-0.3,0.9-0.5,1.3c-0.2,0.4-0.3,0.9-0.5,1.3c-0.2,0.4-0.5,0.6-0.9,0.6h-3.1l6.9-16.6h4.2L131.6,223.2z M126.3,209.5
		c-0.4,1.3-0.8,2.5-1.3,3.8c-0.4,1.2-0.9,2.5-1.3,3.7h3.5c-0.1-1.3-0.3-2.5-0.4-3.7C126.6,212,126.5,210.8,126.3,209.5z"/>
	<path id="XMLID_105_" class="st3" d="M147.5,223.2h-2.6c-0.5,0-0.7-0.2-0.7-0.7v-0.2l1-10l-3,8.3c-0.2,0.4-0.5,0.6-0.9,0.6h-2.2
		c-0.5,0-0.8-0.2-0.8-0.7l-1-8.1l-1.2,10c-0.1,0.5-0.3,0.7-0.8,0.7h-2.7l2.2-16.6h3.6c0.5,0,0.8,0.2,0.9,0.7
		c0.3,1.8,0.6,3.6,0.8,5.4c0.2,1.8,0.5,3.6,0.6,5.3c0.8-1.8,1.5-3.6,2.1-5.4c0.7-1.8,1.3-3.6,1.9-5.4c0.2-0.4,0.4-0.6,0.9-0.6h3.8
		L147.5,223.2z"/>
	<path id="XMLID_107_" class="st3" d="M156.3,206.3c1,0,1.9,0.1,2.6,0.4s1.4,0.6,1.9,1.1s0.8,1,1.1,1.7s0.3,1.4,0.2,2.2l0,0.3
		c-0.2,1.6-0.8,2.9-1.9,3.8c-1,0.9-2.4,1.3-4,1.3c-0.5,0-1.2-0.1-2.1-0.2l-0.7,5.7c-0.1,0.5-0.3,0.7-0.8,0.7h-2.8l2.1-16.8
		c0.8-0.1,1.6-0.1,2.4-0.1S155.6,206.3,156.3,206.3z M156.1,209.4c-0.2,0-0.5,0-0.6,0c-0.2,0-0.4,0-0.6,0l-0.6,4.3
		c0.2,0.1,0.5,0.1,0.7,0.1c0.2,0,0.5,0,0.6,0c1.6,0,2.5-0.7,2.7-2.2l0.1-0.2c0.1-0.6-0.1-1.2-0.4-1.5S157,209.4,156.1,209.4z"/>
	<path id="XMLID_110_" class="st3" d="M170.1,213.6c1,0.4,1.7,0.9,2.2,1.6c0.5,0.7,0.7,1.5,0.7,2.5c0,0.1,0,0.3,0,0.4
		c0,0.2,0,0.3,0,0.5l-0.1,0.4c-0.2,1.4-0.7,2.5-1.6,3.3c-0.9,0.8-2.1,1.2-3.7,1.2c-1.5,0-3.3-0.4-5.2-1.1l0.3-2.6
		c0.1-0.4,0.3-0.6,0.6-0.6c0.1,0,0.2,0,0.3,0.1c0.5,0.2,1,0.4,1.5,0.5c0.5,0.2,1,0.3,1.4,0.4c0.1,0,0.3,0,0.4,0c0.1,0,0.2,0,0.4,0
		c0.6,0,1.1-0.1,1.4-0.4c0.3-0.3,0.5-0.6,0.6-1.1l0-0.2c0-0.1,0-0.2,0-0.2c0-0.1,0-0.1,0-0.2c0-0.4-0.1-0.7-0.3-0.9
		c-0.2-0.2-0.6-0.5-1.1-0.7l-1.8-0.7c-1-0.4-1.7-0.9-2.2-1.6c-0.5-0.7-0.8-1.6-0.8-2.6c0-0.4,0.1-0.9,0.2-1.4l0.1-0.3
		c0.3-1.3,0.8-2.2,1.7-2.8c0.9-0.6,2.1-0.9,3.8-0.9c0.5,0,1.2,0.1,2,0.2c0.8,0.1,1.6,0.3,2.4,0.5l-0.4,2.6c-0.1,0.4-0.3,0.6-0.6,0.6
		c-0.1,0-0.2,0-0.3-0.1c-0.4-0.1-0.7-0.2-1.1-0.3c-0.3-0.1-0.7-0.2-1-0.2c-0.1,0-0.3,0-0.5,0c-0.2,0-0.4,0-0.6,0
		c-0.6,0-1.1,0.1-1.4,0.3c-0.3,0.2-0.5,0.5-0.5,0.9L167,211c0,0.1,0,0.1,0,0.2s0,0.1,0,0.2c0,0.7,0.4,1.2,1.2,1.6L170.1,213.6z"/>
</g>
<path id="XMLID_17_" class="st4" d="M45,59v155c0,0,83-65.4,173,0.8c0-78.5,0-156.8,0-156.8L45,59z"/>
<g id="XMLID_80_">
	
		<image style="overflow:visible;opacity:0;" width="180" height="75" id="XMLID_345_" xlink:href="67896270.png"  transform="matrix(1 0 0 1 41 128)">
	</image>
	<g id="XMLID_243_">
		<g id="XMLID_311_">
			<path id="XMLID_324_" class="st5" d="M62.2,159.3c0.5-0.2,1-0.3,1.7-0.5c0.7-0.2,1.4-0.4,2.1-0.6s1.4-0.4,2-0.6
				c0.7-0.2,1.2-0.3,1.7-0.5c1.6-0.4,3-0.6,4.3-0.5c1.3,0.1,2.4,0.3,3.3,0.7c0.9,0.4,1.7,1,2.2,1.8s0.9,1.7,1.1,2.7l0.1,0.5
				c0.2,1.5,0,2.8-0.5,4.1c-0.6,1.3-1.6,2.3-3.1,3.2c1.7,0,3.1,0.5,4.3,1.5c1.2,1,1.9,2.3,2.1,4l0.1,0.6c0.3,2.4-0.2,4.5-1.6,6.3
				c-1.4,1.8-3.9,3.2-7.6,4.1c-1.1,0.3-2.4,0.6-3.6,0.9c-1.3,0.3-2.9,0.6-4.7,0.9L62.2,159.3z M72.1,168.8c1.1-0.3,1.9-0.8,2.4-1.5
				c0.5-0.7,0.6-1.5,0.5-2.6l0-0.3c-0.1-1-0.5-1.7-1.2-2.1c-0.7-0.4-1.7-0.4-3,0c-0.3,0.1-0.6,0.2-0.9,0.3c-0.3,0.1-0.7,0.2-1,0.3
				l0.9,6.6L72.1,168.8z M71.2,181.3c0.7-0.1,1.2-0.2,1.5-0.3c0.4-0.1,0.7-0.2,1-0.2c1.6-0.4,2.6-1,3.1-1.7c0.5-0.7,0.7-1.6,0.6-2.6
				l-0.1-0.4c-0.1-1-0.6-1.8-1.3-2.2c-0.8-0.4-1.9-0.4-3.2-0.1l-2.6,0.7L71.2,181.3z"/>
			<path id="XMLID_321_" class="st5" d="M109.6,178.7l-5.1,0.8c-0.8,0.1-1.3-0.2-1.5-1c-0.2-0.7-0.3-1.4-0.5-2.1
				c-0.2-0.7-0.4-1.4-0.6-2l-8,1.2c-0.1,0.8-0.3,1.5-0.4,2.3s-0.3,1.5-0.5,2.3c-0.2,0.8-0.6,1.2-1.3,1.3l-5.2,0.8l7.2-29.7l7-1.1
				L109.6,178.7z M97.1,157.1c-0.4,2.2-0.8,4.4-1.1,6.6c-0.4,2.2-0.8,4.4-1.2,6.6l5.8-0.9c-0.6-2.1-1.1-4.1-1.7-6.1
				C98.3,161.2,97.7,159.2,97.1,157.1z"/>
			<path id="XMLID_319_" class="st5" d="M132.4,177.5l-6.2,0.3c-0.8,0-1.3-0.3-1.5-1.1l-4.9-16.6l-1.2,16.7c0,0.8-0.5,1.3-1.3,1.3
				l-4.5,0.2l2.2-28.3l5.9-0.3c0.8,0,1.3,0.3,1.5,1.1c0.9,2.8,1.8,5.6,2.7,8.4c0.8,2.8,1.7,5.6,2.4,8.4l1.2-17
				c0.1-0.8,0.5-1.3,1.4-1.3l4.5-0.2L132.4,177.5z"/>
			<path id="XMLID_317_" class="st5" d="M157,178.9l-6.2-0.5c-0.8-0.1-1.3-0.5-1.4-1.3l-2.8-17l-3.3,16.5c-0.2,0.8-0.6,1.2-1.5,1.1
				l-4.5-0.4l5.7-27.8l5.9,0.5c0.8,0.1,1.2,0.5,1.4,1.2c0.6,2.9,1.1,5.8,1.6,8.7s0.9,5.7,1.4,8.7l3.3-16.7c0.2-0.8,0.7-1.2,1.5-1.1
				l4.5,0.4L157,178.9z"/>
			<path id="XMLID_315_" class="st5" d="M185.8,160.3c-0.3,0.8-0.8,1.1-1.6,0.9l-8.7-1.9l-1.8,5.2l7.7,1.7c0.8,0.2,1.2,0.6,1,1.3
				c0,0.1,0,0.1-0.1,0.1c0,0,0,0.1-0.1,0.1l-1,2.8c-0.3,0.8-0.8,1.1-1.7,0.9l-7.9-1.7l-1.9,5.7l8.6,1.9c0.9,0.2,1.2,0.7,0.9,1.6
				l-1.4,4l-15.9-3.4l9.3-26.8l15.9,3.4L185.8,160.3z"/>
			<path id="XMLID_312_" class="st5" d="M202.9,160.9c1.6,0.6,2.9,1.3,3.9,2.2c1,0.9,1.8,1.9,2.3,2.9c0.5,1,0.7,2.1,0.7,3.3
				c-0.1,1.1-0.4,2.2-1,3.3l-0.4,0.7c-0.7,1.2-1.7,2.3-2.9,3c-1.2,0.8-2.6,1.2-4.2,1.3l0.8,13.5l-5.2-1.9c-0.7-0.3-1.1-0.8-1-1.5
				c0-2.1,0-4.1,0-5.8c0-1.7-0.1-3.4-0.2-5.1c-0.4-0.1-0.8-0.3-1.2-0.5c-0.4-0.2-0.8-0.4-1.2-0.6l-4.6,9c-0.4,0.7-1,1-1.8,0.7
				l-4.5-1.7l13.2-25.4c1.4,0.4,2.8,0.8,4.1,1.3C201,160.3,202.1,160.6,202.9,160.9z M200.8,165.9c-0.2-0.1-0.6-0.2-1-0.3
				c-0.4-0.1-0.8-0.2-1.1-0.3l-3.2,6.3c0.5,0.2,0.8,0.4,1.1,0.5s0.5,0.2,0.8,0.3c1.4,0.5,2.5,0.6,3.4,0.4s1.6-0.9,2.2-1.8l0.1-0.3
				c0.1-0.1,0.1-0.2,0.2-0.3c0-0.1,0.1-0.2,0.1-0.3c0.3-0.9,0.3-1.6-0.2-2.4S202,166.3,200.8,165.9z"/>
		</g>
	</g>
</g>
<g id="XMLID_43_">
	
		<image style="overflow:visible;opacity:0;" width="148" height="67" id="XMLID_241_" xlink:href="67896271.png"  transform="matrix(1 0 0 1 55 48)">
	</image>
	<g id="XMLID_167_">
		<g id="XMLID_209_">
			<path id="XMLID_217_" class="st5" d="M97.7,100l-4.6,0.9c-0.9,0.2-1.4-0.2-1.5-1.1l-0.7-10.4l-7.3,1.4l0.7,10.5
				c0.1,0.8-0.3,1.3-1.2,1.5l-4.7,0.9l-1.8-28.4l4.6-0.9c0.8-0.2,1.3,0.1,1.4,0.9l0.1,0.3l0.6,9.6l7.3-1.4L90,74
				c0-0.8,0.3-1.3,1.1-1.5l4.8-0.9L97.7,100z"/>
			<path id="XMLID_214_" class="st5" d="M128.3,97.4l-5.2,0.3c-0.8,0-1.3-0.3-1.4-1.2c-0.1-0.7-0.2-1.5-0.3-2.2
				c-0.1-0.7-0.2-1.4-0.4-2.1l-8.1,0.5c-0.2,0.8-0.4,1.5-0.7,2.3c-0.2,0.7-0.5,1.5-0.7,2.3c-0.2,0.7-0.7,1.1-1.4,1.2l-5.2,0.3
				l10-28.8l7.1-0.4L128.3,97.4z M118,74.7c-0.6,2.2-1.2,4.4-1.8,6.5c-0.6,2.1-1.2,4.3-1.8,6.4l5.8-0.3c-0.4-2.1-0.7-4.2-1.1-6.3
				C118.8,78.9,118.5,76.8,118,74.7z"/>
			<path id="XMLID_212_" class="st5" d="M155.2,99.1l-6.2-0.5c-0.8-0.1-1.3-0.5-1.4-1.3l-2.7-17l-3.4,16.4c-0.2,0.8-0.7,1.2-1.5,1.1
				l-4.5-0.4l5.9-27.8l5.9,0.5c0.8,0.1,1.2,0.5,1.4,1.2c0.6,2.9,1.1,5.8,1.5,8.7c0.5,2.9,0.9,5.7,1.3,8.7L155,72
				c0.2-0.8,0.7-1.2,1.5-1.1l4.5,0.4L155.2,99.1z"/>
			<path id="XMLID_210_" class="st5" d="M173.4,103.3c-2.8-0.7-4.7-1.9-5.9-3.6c-1.1-1.7-1.3-3.9-0.6-6.7c0.2-0.6,0.4-1.3,0.7-2.1
				l3.4-8.6c1.2-3.1,2.8-5.1,4.9-6.2c2.1-1.1,4.7-1.2,7.9-0.3c1.1,0.3,2.2,0.7,3.5,1.2c1.3,0.5,2.7,1.2,4.1,2l-1.6,3.8
				c-0.3,0.7-0.7,0.9-1.3,0.8c-0.2-0.1-0.3-0.1-0.4-0.2c-0.9-0.5-1.8-0.9-2.7-1.3c-0.9-0.4-1.8-0.7-2.6-0.9c-1.6-0.4-2.8-0.4-3.7,0
				s-1.6,1.3-2.2,2.7l-3.7,9.1c-0.1,0.2-0.2,0.4-0.2,0.6c-0.1,0.2-0.1,0.3-0.2,0.5c-0.3,1.2-0.2,2.1,0.2,2.7s1.2,1.1,2.4,1.4
				c0.6,0.2,1.2,0.3,1.7,0.3c0.5,0.1,1,0.1,1.4,0l2.4-6l-2.2-0.6c-0.8-0.2-1.1-0.7-0.9-1.4c0-0.1,0-0.1,0.1-0.1c0,0,0-0.1,0.1-0.1
				l1.3-3.5l9.2,2.4l-5.6,14.2c-1,0.1-2,0.3-2.9,0.3c-0.9,0.1-1.7,0.1-2.4,0.1c-0.8,0-1.5-0.1-2.2-0.2S174.1,103.5,173.4,103.3z"/>
		</g>
	</g>
</g>
<g id="XMLID_18_">
	
		<image style="overflow:visible;opacity:0;" width="121" height="62" id="XMLID_240_" xlink:href="67896273.png"  transform="matrix(1 0 0 1 64 90)">
	</image>
	<g id="XMLID_174_">
		<g id="XMLID_218_">
			<path id="XMLID_227_" class="st6" d="M91.8,130.4L86,111.9h5.4c0.8,0,1.3,0.4,1.5,1.2c0.5,1.9,0.9,3.8,1.4,5.8
				c0.4,1.9,0.8,3.9,1.2,5.8c2-3.9,3.8-7.8,5.6-11.8c0.3-0.7,0.8-1,1.6-1h5.7l-10.4,18.4l-1,8.5c-0.1,0.8-0.5,1.2-1.4,1.2h-4.8
				L91.8,130.4z"/>
			<path id="XMLID_224_" class="st6" d="M118.1,111.4c1.6,0,3,0.2,4.3,0.7c1.2,0.4,2.3,1.1,3.1,1.9c0.8,0.8,1.4,1.9,1.7,3.1
				c0.3,1.2,0.4,2.7,0.2,4.3l-1.2,9.8c-0.4,3.2-1.4,5.5-3.1,7.1c-1.7,1.5-4.2,2.3-7.6,2.3c-3.4,0-5.9-0.9-7.4-2.7
				c-1.6-1.8-2.1-4.3-1.7-7.4l1.2-9.8c0.2-1.6,0.6-3,1.1-4.2c0.5-1.2,1.2-2.1,2-2.9c0.9-0.8,1.9-1.3,3.1-1.7
				C115,111.6,116.4,111.4,118.1,111.4z M117.7,116.9c-2.5,0-3.9,1.2-4.2,3.7l-1.3,10.6c-0.1,1.3,0.1,2.3,0.7,2.9
				c0.6,0.7,1.5,1,2.8,1c2.5,0,3.9-1.3,4.2-3.8l1.3-10.5c0-0.1,0-0.3,0-0.4s0-0.2,0-0.3C121.3,118,120.1,116.9,117.7,116.9z"/>
			<path id="XMLID_222_" class="st6" d="M149.1,130.9c-0.4,3.4-1.5,5.8-3.2,7.4s-4.1,2.4-7.3,2.4c-3.3,0-5.7-0.9-7.3-2.6
				c-1.6-1.7-2.1-4.1-1.7-7.2l2.4-18.9h4.7c0.8,0,1.2,0.4,1.2,1.1v0.3l-2.2,17.8c-0.1,1.3,0.1,2.2,0.7,2.9c0.6,0.7,1.5,1,2.7,1
				c1.1,0,2-0.3,2.7-0.9c0.7-0.6,1.1-1.6,1.2-2.9l2.2-18.1c0.1-0.8,0.6-1.2,1.4-1.2h4.9L149.1,130.9z"/>
			<path id="XMLID_219_" class="st6" d="M163,111.4c1.7,0,3.2,0.2,4.5,0.7s2.4,1.1,3.2,1.9c0.8,0.8,1.4,1.7,1.8,2.8
				c0.3,1.1,0.4,2.2,0.2,3.5l-0.1,0.8c-0.2,1.4-0.8,2.7-1.6,3.9c-0.9,1.2-2,2.1-3.5,2.7l5.5,12.4h-5.6c-0.8,0-1.3-0.4-1.5-1.1
				c-0.7-2-1.4-3.8-2-5.4c-0.6-1.6-1.3-3.1-2-4.7c-0.4,0-0.8,0-1.2,0c-0.4,0-0.9-0.1-1.4-0.1l-1.2,10c-0.1,0.8-0.6,1.2-1.4,1.2h-4.8
				l3.5-28.4c1.5-0.1,2.9-0.2,4.3-0.3C161,111.5,162.1,111.4,163,111.4z M162.8,116.8c-0.3,0-0.6,0-1,0c-0.4,0-0.8,0-1.1,0.1l-0.8,7
				c0.5,0.1,0.9,0.1,1.2,0.1c0.3,0,0.6,0,0.9,0c1.5,0,2.6-0.3,3.3-0.9c0.7-0.6,1.2-1.4,1.4-2.5l0-0.3c0-0.1,0-0.2,0-0.3
				c0-0.1,0-0.2,0-0.3c0-0.9-0.3-1.6-1-2.2C165,117,164.1,116.8,162.8,116.8z"/>
		</g>
	</g>
</g>
<linearGradient id="XMLID_13_" gradientUnits="userSpaceOnUse" x1="131.7995" y1="49.1255" x2="131.7995" y2="227.2666">
	<stop  offset="9.851808e-003" style="stop-color:#E30000"/>
	<stop  offset="1" style="stop-color:#81272D"/>
</linearGradient>
<path id="XMLID_8_" class="st7" d="M224.8,227.3c-97.6-77.8-186.3,0-186.3,0V50.5l186.6-1.4L224.8,227.3z M217.9,57.7L45.3,59.1
	l0.1,155.9c0,0,82-68.7,172.4-0.2L217.9,57.7z"/>
<linearGradient id="XMLID_15_" gradientUnits="userSpaceOnUse" x1="131.3958" y1="51.6066" x2="131.3958" y2="40.0695">
	<stop  offset="9.852010e-003" style="stop-color:#6A93BC"/>
	<stop  offset="9.086525e-002" style="stop-color:#6F97BE"/>
	<stop  offset="0.1904" style="stop-color:#7EA2C5"/>
	<stop  offset="0.2997" style="stop-color:#97B4D0"/>
	<stop  offset="0.416" style="stop-color:#BACDE0"/>
	<stop  offset="0.5365" style="stop-color:#E6EDF4"/>
	<stop  offset="0.5961" style="stop-color:#FFFFFF"/>
</linearGradient>
<rect id="XMLID_3_" x="30.5" y="40.1" class="st8" width="201.8" height="11.5"/>
<linearGradient id="XMLID_31_" gradientUnits="userSpaceOnUse" x1="49.2463" y1="55.861" x2="49.2463" y2="39.401">
	<stop  offset="9.852010e-003" style="stop-color:#6A93BC"/>
	<stop  offset="9.086525e-002" style="stop-color:#6F97BE"/>
	<stop  offset="0.1904" style="stop-color:#7EA2C5"/>
	<stop  offset="0.2997" style="stop-color:#97B4D0"/>
	<stop  offset="0.416" style="stop-color:#BACDE0"/>
	<stop  offset="0.5365" style="stop-color:#E6EDF4"/>
	<stop  offset="0.5961" style="stop-color:#FFFFFF"/>
</linearGradient>
<rect id="XMLID_10_" x="45.6" y="39.4" class="st9" width="7.4" height="16.5"/>
<linearGradient id="XMLID_33_" gradientUnits="userSpaceOnUse" x1="222.5466" y1="52.56" x2="222.5466" y2="40.2361">
	<stop  offset="9.851808e-003" style="stop-color:#E30000"/>
	<stop  offset="1" style="stop-color:#81272D"/>
</linearGradient>
<rect id="XMLID_11_" x="218.9" y="40.2" class="st10" width="7.4" height="12.3"/>
<linearGradient id="XMLID_34_" gradientUnits="userSpaceOnUse" x1="215.7506" y1="54.5" x2="215.7506" y2="39.5677">
	<stop  offset="9.852010e-003" style="stop-color:#6A93BC"/>
	<stop  offset="9.086525e-002" style="stop-color:#6F97BE"/>
	<stop  offset="0.1904" style="stop-color:#7EA2C5"/>
	<stop  offset="0.2997" style="stop-color:#97B4D0"/>
	<stop  offset="0.416" style="stop-color:#BACDE0"/>
	<stop  offset="0.5365" style="stop-color:#E6EDF4"/>
	<stop  offset="0.5961" style="stop-color:#FFFFFF"/>
</linearGradient>
<rect id="XMLID_19_" x="212.1" y="39.6" class="st11" width="7.4" height="14.9"/>
<linearGradient id="XMLID_36_" gradientUnits="userSpaceOnUse" x1="41.4485" y1="52" x2="41.4485" y2="39.6761">
	<stop  offset="9.851808e-003" style="stop-color:#E30000"/>
	<stop  offset="1" style="stop-color:#81272D"/>
</linearGradient>
<rect id="XMLID_9_" x="37.8" y="39.7" class="st12" width="7.4" height="12.3"/>
<radialGradient id="XMLID_45_" cx="238.4047" cy="45.3981" r="9.9047" gradientUnits="userSpaceOnUse">
	<stop  offset="0" style="stop-color:#6A93BC"/>
	<stop  offset="0.2006" style="stop-color:#6D95BE"/>
	<stop  offset="0.367" style="stop-color:#789CC4"/>
	<stop  offset="0.5211" style="stop-color:#89A7CE"/>
	<stop  offset="0.6679" style="stop-color:#A1B7DC"/>
	<stop  offset="0.8082" style="stop-color:#C0CCEE"/>
	<stop  offset="0.8574" style="stop-color:#CDD4F5"/>
</radialGradient>
<circle id="XMLID_14_" class="st13" cx="238.4" cy="45.4" r="9.9"/>
<radialGradient id="XMLID_47_" cx="23.4047" cy="46.3981" r="9.9047" gradientUnits="userSpaceOnUse">
	<stop  offset="0" style="stop-color:#6A93BC"/>
	<stop  offset="0.2006" style="stop-color:#6D95BE"/>
	<stop  offset="0.367" style="stop-color:#789CC4"/>
	<stop  offset="0.5211" style="stop-color:#89A7CE"/>
	<stop  offset="0.6679" style="stop-color:#A1B7DC"/>
	<stop  offset="0.8082" style="stop-color:#C0CCEE"/>
	<stop  offset="0.8574" style="stop-color:#CDD4F5"/>
</radialGradient>
<circle id="XMLID_2_" class="st14" cx="23.4" cy="46.4" r="9.9"/>
</svg>
