<?xml version="1.0" encoding="utf-8"?>
<!-- Generator: Adobe Illustrator 19.0.0, SVG Export Plug-In . SVG Version: 6.00 Build 0)  -->
<svg version="1.1" id="Layer_1" xmlns="http://www.w3.org/2000/svg" xmlns:xlink="http://www.w3.org/1999/xlink" x="0px" y="0px"
	 viewBox="0 0 280 275" style="enable-background:new 0 0 280 275;" xml:space="preserve">
<style type="text/css">
	.st0{fill:none;stroke:#1A1A1A;stroke-width:3;stroke-miterlimit:10;}
	.st1{fill:url(#XMLID_12_);}
	.st2{fill:none;stroke:#000000;stroke-width:3;stroke-miterlimit:10;}
	.st3{fill:url(#XMLID_13_);stroke:#000000;stroke-width:3;stroke-miterlimit:10;}
	.st4{fill:url(#XMLID_15_);stroke:url(#XMLID_34_);stroke-miterlimit:10;}
	.st5{fill:url(#XMLID_36_);stroke:#000000;stroke-miterlimit:10;}
	.st6{fill:url(#XMLID_77_);stroke:#000000;stroke-miterlimit:10;}
	.st7{fill:url(#XMLID_78_);stroke:#000000;stroke-width:3;stroke-miterlimit:10;}
	.st8{fill:url(#XMLID_79_);stroke:#000000;stroke-width:2;stroke-miterlimit:10;}
	.st9{fill:url(#XMLID_80_);stroke:#000000;stroke-width:2;stroke-miterlimit:10;}
	.st10{fill:#E30000;stroke:#000000;stroke-width:2;stroke-miterlimit:10;}
	.st11{fill:url(#XMLID_81_);stroke:#000000;stroke-miterlimit:10;}
	.st12{fill:url(#XMLID_82_);stroke:#000000;stroke-miterlimit:10;}
	.st13{fill:#FFFFFF;stroke:#000000;stroke-miterlimit:10;}
	.st14{fill:#E30000;stroke:#FFFFFF;}
</style>
<g id="XMLID_8_">
	<polygon id="XMLID_6_" class="st0" points="59.6,40.5 203.7,40.5 134.1,9.2 	"/>
	<g id="XMLID_5_">
		
			<image style="overflow:visible;opacity:0.68;" width="204" height="110" id="XMLID_35_" xlink:href="6789627F.png"  transform="matrix(1 0 0 1 39 175)">
		</image>
		<g id="XMLID_27_">
			<linearGradient id="XMLID_12_" gradientUnits="userSpaceOnUse" x1="133.6484" y1="261" x2="133.6484" y2="185.4946">
				<stop  offset="9.851808e-003" style="stop-color:#E30000"/>
				<stop  offset="0.134" style="stop-color:#DE0202"/>
				<stop  offset="0.2865" style="stop-color:#CF0809"/>
				<stop  offset="0.4538" style="stop-color:#B61215"/>
				<stop  offset="0.6306" style="stop-color:#932025"/>
				<stop  offset="0.711" style="stop-color:#81272D"/>
			</linearGradient>
			<path id="XMLID_33_" class="st1" d="M50.3,203.8l82.6,57.2l84.1-59C217,202,113.8,163.7,50.3,203.8z"/>
			<path id="XMLID_32_" class="st2" d="M50.3,203.8l82.6,57.2l84.1-59C217,202,113.8,163.7,50.3,203.8z"/>
		</g>
	</g>
	<linearGradient id="XMLID_13_" gradientUnits="userSpaceOnUse" x1="131.7995" y1="49.1255" x2="131.7995" y2="227.2666">
		<stop  offset="9.851808e-003" style="stop-color:#E30000"/>
		<stop  offset="1" style="stop-color:#81272D"/>
	</linearGradient>
	<path id="XMLID_7_" class="st3" d="M225.1,49.1L38.5,50.5v176.8c0,0,88.7-77.8,186.3,0L225.1,49.1z"/>
	<linearGradient id="XMLID_15_" gradientUnits="userSpaceOnUse" x1="133.0846" y1="52.1666" x2="133.0846" y2="40.6295">
		<stop  offset="9.852010e-003" style="stop-color:#6A93BC"/>
		<stop  offset="9.086525e-002" style="stop-color:#6F97BE"/>
		<stop  offset="0.1904" style="stop-color:#7EA2C5"/>
		<stop  offset="0.2997" style="stop-color:#97B4D0"/>
		<stop  offset="0.416" style="stop-color:#BACDE0"/>
		<stop  offset="0.5365" style="stop-color:#E6EDF4"/>
		<stop  offset="0.5961" style="stop-color:#FFFFFF"/>
	</linearGradient>
	<linearGradient id="XMLID_34_" gradientUnits="userSpaceOnUse" x1="133.0846" y1="40.1295" x2="133.0846" y2="52.6666">
		<stop  offset="0" style="stop-color:#5E5E5E"/>
		<stop  offset="1.873392e-002" style="stop-color:#5C5C5C"/>
		<stop  offset="0.2049" style="stop-color:#464646"/>
		<stop  offset="0.4101" style="stop-color:#373737"/>
		<stop  offset="0.6493" style="stop-color:#2E2E2E"/>
		<stop  offset="1" style="stop-color:#2B2B2B"/>
	</linearGradient>
	<rect id="XMLID_3_" x="32.2" y="40.6" class="st4" width="201.8" height="11.5"/>
	<radialGradient id="XMLID_36_" cx="23.4047" cy="46.3981" r="9.9047" gradientUnits="userSpaceOnUse">
		<stop  offset="0" style="stop-color:#6A93BC"/>
		<stop  offset="0.2006" style="stop-color:#6D95BE"/>
		<stop  offset="0.367" style="stop-color:#789CC4"/>
		<stop  offset="0.5211" style="stop-color:#89A7CE"/>
		<stop  offset="0.6679" style="stop-color:#A1B7DC"/>
		<stop  offset="0.8082" style="stop-color:#C0CCEE"/>
		<stop  offset="0.8574" style="stop-color:#CDD4F5"/>
	</radialGradient>
	<circle id="XMLID_2_" class="st5" cx="23.4" cy="46.4" r="9.9"/>
	<radialGradient id="XMLID_77_" cx="241.4047" cy="46.3981" r="9.9047" gradientUnits="userSpaceOnUse">
		<stop  offset="0" style="stop-color:#6A93BC"/>
		<stop  offset="0.2006" style="stop-color:#6D95BE"/>
		<stop  offset="0.367" style="stop-color:#789CC4"/>
		<stop  offset="0.5211" style="stop-color:#89A7CE"/>
		<stop  offset="0.6679" style="stop-color:#A1B7DC"/>
		<stop  offset="0.8082" style="stop-color:#C0CCEE"/>
		<stop  offset="0.8574" style="stop-color:#CDD4F5"/>
	</radialGradient>
	<circle id="XMLID_14_" class="st6" cx="241.4" cy="46.4" r="9.9"/>
	<linearGradient id="XMLID_78_" gradientUnits="userSpaceOnUse" x1="131.5815" y1="57.6944" x2="131.5815" y2="214.9465">
		<stop  offset="3.283872e-003" style="stop-color:#E30000"/>
		<stop  offset="7.736723e-002" style="stop-color:#E00101"/>
		<stop  offset="0.1266" style="stop-color:#D70606"/>
		<stop  offset="0.1687" style="stop-color:#C80E0E"/>
		<stop  offset="0.2067" style="stop-color:#B31919"/>
		<stop  offset="0.2419" style="stop-color:#972727"/>
		<stop  offset="0.2747" style="stop-color:#763838"/>
		<stop  offset="0.3058" style="stop-color:#4F4C4C"/>
		<stop  offset="0.3071" style="stop-color:#4D4D4D"/>
		<stop  offset="0.4097" style="stop-color:#4F4F4F"/>
		<stop  offset="0.4466" style="stop-color:#565656"/>
		<stop  offset="0.473" style="stop-color:#616161"/>
		<stop  offset="0.4943" style="stop-color:#727272"/>
		<stop  offset="0.5125" style="stop-color:#888888"/>
		<stop  offset="0.5287" style="stop-color:#A4A4A4"/>
		<stop  offset="0.5433" style="stop-color:#C4C4C4"/>
		<stop  offset="0.5563" style="stop-color:#E8E8E8"/>
		<stop  offset="0.5632" style="stop-color:#FFFFFF"/>
	</linearGradient>
	<path id="XMLID_4_" class="st7" d="M217.9,57.7L45.3,59.1l0.1,155.9c0,0,82-68.7,172.4-0.2L217.9,57.7z"/>
	<linearGradient id="XMLID_79_" gradientUnits="userSpaceOnUse" x1="42.4485" y1="52.1666" x2="42.4485" y2="39.8428">
		<stop  offset="9.851808e-003" style="stop-color:#E30000"/>
		<stop  offset="1" style="stop-color:#81272D"/>
	</linearGradient>
	<rect id="XMLID_9_" x="38.8" y="39.8" class="st8" width="7.4" height="12.3"/>
	<linearGradient id="XMLID_80_" gradientUnits="userSpaceOnUse" x1="221.5466" y1="52.56" x2="221.5466" y2="40.2361">
		<stop  offset="9.851808e-003" style="stop-color:#E30000"/>
		<stop  offset="1" style="stop-color:#81272D"/>
	</linearGradient>
	<rect id="XMLID_11_" x="217.9" y="40.2" class="st9" width="7.4" height="12.3"/>
	<g id="XMLID_60_">
		<path id="XMLID_61_" class="st10" d="M62.2,159.3c0.5-0.2,1-0.3,1.7-0.5c0.7-0.2,1.4-0.4,2.1-0.6s1.4-0.4,2-0.6
			c0.7-0.2,1.2-0.3,1.7-0.5c1.6-0.4,3-0.6,4.3-0.5c1.3,0.1,2.4,0.3,3.3,0.7c0.9,0.4,1.7,1,2.2,1.8s0.9,1.7,1.1,2.7l0.1,0.5
			c0.2,1.5,0,2.8-0.5,4.1c-0.6,1.3-1.6,2.3-3.1,3.2c1.7,0,3.1,0.5,4.3,1.5c1.2,1,1.9,2.3,2.1,4l0.1,0.6c0.3,2.4-0.2,4.5-1.6,6.3
			c-1.4,1.8-3.9,3.2-7.6,4.1c-1.1,0.3-2.4,0.6-3.6,0.9c-1.3,0.3-2.9,0.6-4.7,0.9L62.2,159.3z M72.1,168.8c1.1-0.3,1.9-0.8,2.4-1.5
			c0.5-0.7,0.6-1.5,0.5-2.6l0-0.3c-0.1-1-0.5-1.7-1.2-2.1c-0.7-0.4-1.7-0.4-3,0c-0.3,0.1-0.6,0.2-0.9,0.3c-0.3,0.1-0.7,0.2-1,0.3
			l0.9,6.6L72.1,168.8z M71.2,181.3c0.7-0.1,1.2-0.2,1.5-0.3c0.4-0.1,0.7-0.2,1-0.2c1.6-0.4,2.6-1,3.1-1.7c0.5-0.7,0.7-1.6,0.6-2.6
			l-0.1-0.4c-0.1-1-0.6-1.8-1.3-2.2c-0.8-0.4-1.9-0.4-3.2-0.1l-2.6,0.7L71.2,181.3z"/>
		<path id="XMLID_65_" class="st10" d="M109.6,178.7l-5.1,0.8c-0.8,0.1-1.3-0.2-1.5-1c-0.2-0.7-0.3-1.4-0.5-2.1
			c-0.2-0.7-0.4-1.4-0.6-2l-8,1.2c-0.1,0.8-0.3,1.5-0.4,2.3s-0.3,1.5-0.5,2.3c-0.2,0.8-0.6,1.2-1.3,1.3l-5.2,0.8l7.2-29.7l7-1.1
			L109.6,178.7z M97.1,157.1c-0.4,2.2-0.8,4.4-1.1,6.6c-0.4,2.2-0.8,4.4-1.2,6.6l5.8-0.9c-0.6-2.1-1.1-4.1-1.7-6.1
			C98.3,161.2,97.7,159.2,97.1,157.1z"/>
		<path id="XMLID_68_" class="st10" d="M132.4,177.5l-6.2,0.3c-0.8,0-1.3-0.3-1.5-1.1l-4.9-16.6l-1.2,16.7c0,0.8-0.5,1.3-1.3,1.3
			l-4.5,0.2l2.2-28.3l5.9-0.3c0.8,0,1.3,0.3,1.5,1.1c0.9,2.8,1.8,5.6,2.7,8.4c0.8,2.8,1.7,5.6,2.4,8.4l1.2-17
			c0.1-0.8,0.5-1.3,1.4-1.3l4.5-0.2L132.4,177.5z"/>
		<path id="XMLID_70_" class="st10" d="M157,178.9l-6.2-0.5c-0.8-0.1-1.3-0.5-1.4-1.3l-2.8-17l-3.3,16.5c-0.2,0.8-0.6,1.2-1.5,1.1
			l-4.5-0.4l5.7-27.8l5.9,0.5c0.8,0.1,1.2,0.5,1.4,1.2c0.6,2.9,1.1,5.8,1.6,8.7s0.9,5.7,1.4,8.7l3.3-16.7c0.2-0.8,0.7-1.2,1.5-1.1
			l4.5,0.4L157,178.9z"/>
		<path id="XMLID_72_" class="st10" d="M185.8,160.3c-0.3,0.8-0.8,1.1-1.6,0.9l-8.7-1.9l-1.8,5.2l7.7,1.7c0.8,0.2,1.2,0.6,1,1.3
			c0,0.1,0,0.1-0.1,0.1c0,0,0,0.1-0.1,0.1l-1,2.8c-0.3,0.8-0.8,1.1-1.7,0.9l-7.9-1.7l-1.9,5.7l8.6,1.9c0.9,0.2,1.2,0.7,0.9,1.6
			l-1.4,4l-15.9-3.4l9.3-26.8l15.9,3.4L185.8,160.3z"/>
		<path id="XMLID_74_" class="st10" d="M202.9,160.9c1.6,0.6,2.9,1.3,3.9,2.2c1,0.9,1.8,1.9,2.3,2.9c0.5,1,0.7,2.1,0.7,3.3
			c-0.1,1.1-0.4,2.2-1,3.3l-0.4,0.7c-0.7,1.2-1.7,2.3-2.9,3c-1.2,0.8-2.6,1.2-4.2,1.3l0.8,13.5l-5.2-1.9c-0.7-0.3-1.1-0.8-1-1.5
			c0-2.1,0-4.1,0-5.8c0-1.7-0.1-3.4-0.2-5.1c-0.4-0.1-0.8-0.3-1.2-0.5c-0.4-0.2-0.8-0.4-1.2-0.6l-4.6,9c-0.4,0.7-1,1-1.8,0.7
			l-4.5-1.7l13.2-25.4c1.4,0.4,2.8,0.8,4.1,1.3C201,160.3,202.1,160.6,202.9,160.9z M200.8,165.9c-0.2-0.1-0.6-0.2-1-0.3
			c-0.4-0.1-0.8-0.2-1.1-0.3l-3.2,6.3c0.5,0.2,0.8,0.4,1.1,0.5s0.5,0.2,0.8,0.3c1.4,0.5,2.5,0.6,3.4,0.4s1.6-0.9,2.2-1.8l0.1-0.3
			c0.1-0.1,0.1-0.2,0.2-0.3c0-0.1,0.1-0.2,0.1-0.3c0.3-0.9,0.3-1.6-0.2-2.4S202,166.3,200.8,165.9z"/>
	</g>
	<g id="XMLID_50_">
		<path id="XMLID_51_" class="st10" d="M97.7,100l-4.6,0.9c-0.9,0.2-1.4-0.2-1.5-1.1l-0.7-10.4l-7.3,1.4l0.7,10.5
			c0.1,0.8-0.3,1.3-1.2,1.5l-4.7,0.9l-1.8-28.4l4.6-0.9c0.8-0.2,1.3,0.1,1.4,0.9l0.1,0.3l0.6,9.6l7.3-1.4L90,74
			c0-0.8,0.3-1.3,1.1-1.5l4.8-0.9L97.7,100z"/>
		<path id="XMLID_53_" class="st10" d="M128.3,97.4l-5.2,0.3c-0.8,0-1.3-0.3-1.4-1.2c-0.1-0.7-0.2-1.5-0.3-2.2
			c-0.1-0.7-0.2-1.4-0.4-2.1l-8.1,0.5c-0.2,0.8-0.4,1.5-0.7,2.3c-0.2,0.7-0.5,1.5-0.7,2.3c-0.2,0.7-0.7,1.1-1.4,1.2l-5.2,0.3
			l10-28.8l7.1-0.4L128.3,97.4z M118,74.7c-0.6,2.2-1.2,4.4-1.8,6.5c-0.6,2.1-1.2,4.3-1.8,6.4l5.8-0.3c-0.4-2.1-0.7-4.2-1.1-6.3
			C118.8,78.9,118.5,76.8,118,74.7z"/>
		<path id="XMLID_56_" class="st10" d="M155.2,99.1l-6.2-0.5c-0.8-0.1-1.3-0.5-1.4-1.3l-2.7-17l-3.4,16.4c-0.2,0.8-0.7,1.2-1.5,1.1
			l-4.5-0.4l5.9-27.8l5.9,0.5c0.8,0.1,1.2,0.5,1.4,1.2c0.6,2.9,1.1,5.8,1.5,8.7c0.5,2.9,0.9,5.7,1.3,8.7L155,72
			c0.2-0.8,0.7-1.2,1.5-1.1l4.5,0.4L155.2,99.1z"/>
		<path id="XMLID_58_" class="st10" d="M173.4,103.3c-2.8-0.7-4.7-1.9-5.9-3.6c-1.1-1.7-1.3-3.9-0.6-6.7c0.2-0.6,0.4-1.3,0.7-2.1
			l3.4-8.6c1.2-3.1,2.8-5.1,4.9-6.2c2.1-1.1,4.7-1.2,7.9-0.3c1.1,0.3,2.2,0.7,3.5,1.2c1.3,0.5,2.7,1.2,4.1,2l-1.6,3.8
			c-0.3,0.7-0.7,0.9-1.3,0.8c-0.2-0.1-0.3-0.1-0.4-0.2c-0.9-0.5-1.8-0.9-2.7-1.3c-0.9-0.4-1.8-0.7-2.6-0.9c-1.6-0.4-2.8-0.4-3.7,0
			s-1.6,1.3-2.2,2.7l-3.7,9.1c-0.1,0.2-0.2,0.4-0.2,0.6c-0.1,0.2-0.1,0.3-0.2,0.5c-0.3,1.2-0.2,2.1,0.2,2.7s1.2,1.1,2.4,1.4
			c0.6,0.2,1.2,0.3,1.7,0.3c0.5,0.1,1,0.1,1.4,0l2.4-6l-2.2-0.6c-0.8-0.2-1.1-0.7-0.9-1.4c0-0.1,0-0.1,0.1-0.1c0,0,0-0.1,0.1-0.1
			l1.3-3.5l9.2,2.4l-5.6,14.2c-1,0.1-2,0.3-2.9,0.3c-0.9,0.1-1.7,0.1-2.4,0.1c-0.8,0-1.5-0.1-2.2-0.2S174.1,103.5,173.4,103.3z"/>
	</g>
	<linearGradient id="XMLID_81_" gradientUnits="userSpaceOnUse" x1="50.2463" y1="56.0276" x2="50.2463" y2="39.5677">
		<stop  offset="9.852010e-003" style="stop-color:#6A93BC"/>
		<stop  offset="9.086525e-002" style="stop-color:#6F97BE"/>
		<stop  offset="0.1904" style="stop-color:#7EA2C5"/>
		<stop  offset="0.2997" style="stop-color:#97B4D0"/>
		<stop  offset="0.416" style="stop-color:#BACDE0"/>
		<stop  offset="0.5365" style="stop-color:#E6EDF4"/>
		<stop  offset="0.5961" style="stop-color:#FFFFFF"/>
	</linearGradient>
	<rect id="XMLID_10_" x="46.6" y="39.6" class="st11" width="7.4" height="16.5"/>
	<linearGradient id="XMLID_82_" gradientUnits="userSpaceOnUse" x1="214.7506" y1="56.0276" x2="214.7506" y2="39.5677">
		<stop  offset="9.852010e-003" style="stop-color:#6A93BC"/>
		<stop  offset="9.086525e-002" style="stop-color:#6F97BE"/>
		<stop  offset="0.1904" style="stop-color:#7EA2C5"/>
		<stop  offset="0.2997" style="stop-color:#97B4D0"/>
		<stop  offset="0.416" style="stop-color:#BACDE0"/>
		<stop  offset="0.5365" style="stop-color:#E6EDF4"/>
		<stop  offset="0.5961" style="stop-color:#FFFFFF"/>
	</linearGradient>
	<rect id="XMLID_19_" x="211.1" y="39.6" class="st12" width="7.4" height="16.5"/>
	<g id="XMLID_30_">
		<path id="XMLID_31_" class="st13" d="M100.5,206.3c0.5,0,1.2,0.1,1.9,0.2c0.7,0.1,1.4,0.3,2.3,0.5l-0.3,2.4
			c-0.1,0.4-0.3,0.6-0.6,0.6c-0.1,0-0.2,0-0.3-0.1c-0.5-0.1-1-0.3-1.4-0.3c-0.5-0.1-0.9-0.1-1.2-0.1c-0.9,0-1.5,0.2-2,0.6
			c-0.4,0.4-0.7,1.2-0.9,2.3l-0.6,5.1c0,0.1,0,0.3,0,0.4c0,0.1,0,0.2,0,0.3c0,0.7,0.2,1.3,0.6,1.6s1,0.5,1.7,0.5
			c0.4,0,0.8,0,1.3-0.1c0.5-0.1,0.9-0.2,1.4-0.4c0.1,0,0.2-0.1,0.3-0.1c0.4,0,0.5,0.2,0.5,0.6v0.2l-0.3,2.3
			c-0.8,0.3-1.6,0.5-2.3,0.6c-0.7,0.1-1.4,0.2-1.9,0.2c-3.3,0-5-1.6-5-4.8c0-0.2,0-0.5,0-0.7c0-0.2,0-0.5,0.1-0.7l0.6-5.2
			c0.3-2.1,0.9-3.6,1.9-4.5C97.1,206.7,98.6,206.3,100.5,206.3z"/>
		<path id="XMLID_38_" class="st13" d="M116.1,223.2h-2.8c-0.5,0-0.8-0.3-0.7-0.8l0.7-6.1H109l-0.7,6.2c-0.1,0.5-0.3,0.7-0.8,0.7
			h-2.8l2-16.6h2.7c0.5,0,0.7,0.2,0.7,0.7v0.2l-0.7,5.6h4.4l0.7-5.7c0.1-0.5,0.3-0.7,0.8-0.7h2.9L116.1,223.2z"/>
		<path id="XMLID_40_" class="st13" d="M131,223.2H128c-0.5,0-0.8-0.2-0.8-0.7c0-0.4-0.1-0.9-0.1-1.3c0-0.4-0.1-0.8-0.1-1.2h-4.8
			c-0.2,0.4-0.3,0.9-0.5,1.3c-0.2,0.4-0.3,0.9-0.5,1.3c-0.2,0.4-0.5,0.6-0.9,0.6h-3.1l6.9-16.6h4.2L131,223.2z M125.8,209.5
			c-0.4,1.3-0.8,2.5-1.3,3.8c-0.4,1.2-0.9,2.5-1.3,3.7h3.5c-0.1-1.3-0.3-2.5-0.4-3.7C126.1,212,125.9,210.8,125.8,209.5z"/>
		<path id="XMLID_43_" class="st13" d="M146.9,223.2h-2.6c-0.5,0-0.7-0.2-0.7-0.7v-0.2l1-10l-3,8.3c-0.2,0.4-0.5,0.6-0.9,0.6h-2.2
			c-0.5,0-0.8-0.2-0.8-0.7l-1-8.1l-1.2,10c-0.1,0.5-0.3,0.7-0.8,0.7H132l2.2-16.6h3.6c0.5,0,0.8,0.2,0.9,0.7
			c0.3,1.8,0.6,3.6,0.8,5.4c0.2,1.8,0.5,3.6,0.6,5.3c0.8-1.8,1.5-3.6,2.1-5.4c0.7-1.8,1.3-3.6,1.9-5.4c0.2-0.4,0.4-0.6,0.9-0.6h3.8
			L146.9,223.2z"/>
		<path id="XMLID_45_" class="st13" d="M155.7,206.3c1,0,1.9,0.1,2.6,0.4s1.4,0.6,1.9,1.1s0.8,1,1.1,1.7s0.3,1.4,0.2,2.2l0,0.3
			c-0.2,1.6-0.8,2.9-1.9,3.8c-1,0.9-2.4,1.3-4,1.3c-0.5,0-1.2-0.1-2.1-0.2l-0.7,5.7c-0.1,0.5-0.3,0.7-0.8,0.7h-2.8l2.1-16.8
			c0.8-0.1,1.6-0.1,2.4-0.1S155,206.3,155.7,206.3z M155.5,209.4c-0.2,0-0.5,0-0.6,0c-0.2,0-0.4,0-0.6,0l-0.6,4.3
			c0.2,0.1,0.5,0.1,0.7,0.1c0.2,0,0.5,0,0.6,0c1.6,0,2.5-0.7,2.7-2.2l0.1-0.2c0.1-0.6-0.1-1.2-0.4-1.5S156.4,209.4,155.5,209.4z"/>
		<path id="XMLID_48_" class="st13" d="M169.6,213.6c1,0.4,1.7,0.9,2.2,1.6c0.5,0.7,0.7,1.5,0.7,2.5c0,0.1,0,0.3,0,0.4
			c0,0.2,0,0.3,0,0.5l-0.1,0.4c-0.2,1.4-0.7,2.5-1.6,3.3c-0.9,0.8-2.1,1.2-3.7,1.2c-1.5,0-3.3-0.4-5.2-1.1l0.3-2.6
			c0.1-0.4,0.3-0.6,0.6-0.6c0.1,0,0.2,0,0.3,0.1c0.5,0.2,1,0.4,1.5,0.5c0.5,0.2,1,0.3,1.4,0.4c0.1,0,0.3,0,0.4,0c0.1,0,0.2,0,0.4,0
			c0.6,0,1.1-0.1,1.4-0.4c0.3-0.3,0.5-0.6,0.6-1.1l0-0.2c0-0.1,0-0.2,0-0.2c0-0.1,0-0.1,0-0.2c0-0.4-0.1-0.7-0.3-0.9
			c-0.2-0.2-0.6-0.5-1.1-0.7l-1.8-0.7c-1-0.4-1.7-0.9-2.2-1.6c-0.5-0.7-0.8-1.6-0.8-2.6c0-0.4,0.1-0.9,0.2-1.4l0.1-0.3
			c0.3-1.3,0.8-2.2,1.7-2.8c0.9-0.6,2.1-0.9,3.8-0.9c0.5,0,1.2,0.1,2,0.2c0.8,0.1,1.6,0.3,2.4,0.5l-0.4,2.6
			c-0.1,0.4-0.3,0.6-0.6,0.6c-0.1,0-0.2,0-0.3-0.1c-0.4-0.1-0.7-0.2-1.1-0.3c-0.3-0.1-0.7-0.2-1-0.2c-0.1,0-0.3,0-0.5,0
			c-0.2,0-0.4,0-0.6,0c-0.6,0-1.1,0.1-1.4,0.3c-0.3,0.2-0.5,0.5-0.5,0.9l-0.1,0.2c0,0.1,0,0.1,0,0.2s0,0.1,0,0.2
			c0,0.7,0.4,1.2,1.2,1.6L169.6,213.6z"/>
	</g>
	<g id="XMLID_16_">
		<path id="XMLID_17_" class="st14" d="M91.8,130.4L86,111.9h5.4c0.8,0,1.3,0.4,1.5,1.2c0.5,1.9,0.9,3.8,1.4,5.8
			c0.4,1.9,0.8,3.9,1.2,5.8c2-3.9,3.8-7.8,5.6-11.8c0.3-0.7,0.8-1,1.6-1h5.7l-10.4,18.4l-1,8.5c-0.1,0.8-0.5,1.2-1.4,1.2h-4.8
			L91.8,130.4z"/>
		<path id="XMLID_20_" class="st14" d="M118.1,111.4c1.6,0,3,0.2,4.3,0.7c1.2,0.4,2.3,1.1,3.1,1.9c0.8,0.8,1.4,1.9,1.7,3.1
			c0.3,1.2,0.4,2.7,0.2,4.3l-1.2,9.8c-0.4,3.2-1.4,5.5-3.1,7.1c-1.7,1.5-4.2,2.3-7.6,2.3c-3.4,0-5.9-0.9-7.4-2.7
			c-1.6-1.8-2.1-4.3-1.7-7.4l1.2-9.8c0.2-1.6,0.6-3,1.1-4.2c0.5-1.2,1.2-2.1,2-2.9c0.9-0.8,1.9-1.3,3.1-1.7
			C115,111.6,116.4,111.4,118.1,111.4z M117.7,116.9c-2.5,0-3.9,1.2-4.2,3.7l-1.3,10.6c-0.1,1.3,0.1,2.3,0.7,2.9
			c0.6,0.7,1.5,1,2.8,1c2.5,0,3.9-1.3,4.2-3.8l1.3-10.5c0-0.1,0-0.3,0-0.4s0-0.2,0-0.3C121.3,118,120.1,116.9,117.7,116.9z"/>
		<path id="XMLID_23_" class="st14" d="M149.1,130.9c-0.4,3.4-1.5,5.8-3.2,7.4s-4.1,2.4-7.3,2.4c-3.3,0-5.7-0.9-7.3-2.6
			c-1.6-1.7-2.1-4.1-1.7-7.2l2.4-18.9h4.7c0.8,0,1.2,0.4,1.2,1.1v0.3l-2.2,17.8c-0.1,1.3,0.1,2.2,0.7,2.9c0.6,0.7,1.5,1,2.7,1
			c1.1,0,2-0.3,2.7-0.9c0.7-0.6,1.1-1.6,1.2-2.9l2.2-18.1c0.1-0.8,0.6-1.2,1.4-1.2h4.9L149.1,130.9z"/>
		<path id="XMLID_26_" class="st14" d="M163,111.4c1.7,0,3.2,0.2,4.5,0.7s2.4,1.1,3.2,1.9c0.8,0.8,1.4,1.7,1.8,2.8
			c0.3,1.1,0.4,2.2,0.2,3.5l-0.1,0.8c-0.2,1.4-0.8,2.7-1.6,3.9c-0.9,1.2-2,2.1-3.5,2.7l5.5,12.4h-5.6c-0.8,0-1.3-0.4-1.5-1.1
			c-0.7-2-1.4-3.8-2-5.4c-0.6-1.6-1.3-3.1-2-4.7c-0.4,0-0.8,0-1.2,0c-0.4,0-0.9-0.1-1.4-0.1l-1.2,10c-0.1,0.8-0.6,1.2-1.4,1.2h-4.8
			l3.5-28.4c1.5-0.1,2.9-0.2,4.3-0.3C161,111.5,162.1,111.4,163,111.4z M162.8,116.8c-0.3,0-0.6,0-1,0c-0.4,0-0.8,0-1.1,0.1l-0.8,7
			c0.5,0.1,0.9,0.1,1.2,0.1c0.3,0,0.6,0,0.9,0c1.5,0,2.6-0.3,3.3-0.9c0.7-0.6,1.2-1.4,1.4-2.5l0-0.3c0-0.1,0-0.2,0-0.3
			c0-0.1,0-0.2,0-0.3c0-0.9-0.3-1.6-1-2.2C165,117,164.1,116.8,162.8,116.8z"/>
	</g>
</g>
</svg>
